<svg width="254" height="48" viewBox="0 0 254 48" fill="none" xmlns="http://www.w3.org/2000/svg">
<g clip-path="url(#clip0_2275_29569)">
<path d="M0 24C0 48 0 48 24.0075 48C48.0149 48 48.0149 48 48.0149 24C48.0149 0 48.0149 0 24.0075 0C0 0 0 0 0 24Z" fill="#DC173E"/>
<path fill-rule="evenodd" clip-rule="evenodd" d="M21.3223 6.52136C21.8978 7.51755 22.1209 8.47142 22.439 9.37268C22.9629 9.30405 23.5647 9.4413 24.1574 9.48476C24.8358 9.614 25.369 9.67348 25.8758 9.59685C26.1847 8.17062 26.4513 7.45807 27.0702 6.46189C26.7956 6.6506 26.2202 6.71923 25.9879 7.06349C25.6447 6.76269 25.3781 6.9514 25.2065 7.26936C25.2671 7.01202 25.1893 6.797 24.8541 6.77069C25.052 6.40127 24.742 6.21255 24.4251 6.37611C24.4159 6.05014 24.1585 6.05014 24.1414 5.87744C24.0979 6.07531 23.8668 5.98038 23.9011 6.46189C23.6437 6.25602 23.3851 6.39326 23.4892 6.75354C23.1712 6.75354 23.0854 7.01088 23.1197 7.33798C22.9046 6.83932 22.5007 6.98571 22.3554 7.16642C22.106 6.66776 21.9092 6.98571 21.3326 6.5225L21.3223 6.52136Z" fill="#F7D256"/>
<path fill-rule="evenodd" clip-rule="evenodd" d="M26.3746 9.06396C26.0142 9.69073 25.8506 9.73419 24.2523 9.48486C22.9892 9.35562 21.8463 9.00335 21.7948 10.1459C22.2158 10.1974 22.8256 10.2409 23.0831 11.1341L22.3097 11.7952C21.7593 11.881 20.9001 12.6107 20.3338 11.9324C20.1794 12.5683 20.7628 12.7479 21.3818 12.7228C21.8108 12.6793 21.9493 12.5592 22.7478 12.4048L22.9629 12.637C24.1745 12.7399 24.8015 14.4658 22.8336 15.4883C22.7558 15.7205 22.8851 16.0041 23.0659 16.0384C22.4984 16.8459 21.5534 17.8501 21.2182 17.189C21.1404 17.2668 20.9173 17.8158 21.3475 18.1166C21.0214 18.5203 20.9013 18.9927 20.9184 19.5337C19.6211 19.3278 18.771 19.1128 19.0627 17.9016C20.4368 17.9622 20.8155 16.3038 20.6095 15.462C19.811 12.0948 15.4635 9.38993 12.3012 9.30415C12.4728 10.2237 13.0403 10.8848 13.6844 11.4944C12.8424 11.0826 11.8722 10.6869 10.8494 10.9019C10.9695 11.6236 11.3562 12.4654 13.014 13.831C11.8195 13.1265 10.7292 12.4311 10.3425 11.873C10.1709 12.1051 10.076 13.0499 11.0896 13.7372C10.7636 13.608 9.17328 13.6171 8.69277 13.9694C8.98451 14.6305 10.3162 15.7902 11.4077 16.1505C10.3677 15.9961 9.39752 15.5832 8.512 14.8284C8.38272 14.9484 8.512 16.1768 9.62062 16.6572C9.26023 16.6835 8.03949 17.0266 7.73059 17.4132C8.3667 18.263 9.99816 19.011 10.8059 19.011C9.70642 19.1574 8.49484 18.9332 7.99602 18.7788C8.00517 19.0624 7.77292 20.1959 10.7887 20.0072C9.71443 20.5138 8.08297 21.5786 7.82441 22.5062C8.87239 22.9706 10.7453 22.584 11.7166 22.2832C8.84722 24.0354 8.39988 24.2161 7.86788 24.0948C8.56348 25.5634 10.2396 24.5672 11.6823 23.7517C9.90435 26.1307 9.61146 27.3419 9.65494 29.0335C11.0896 28.8619 13.1604 26.8089 14.269 25.0567C12.9888 27.693 12.2246 29.8066 10.8322 30.4334C12.4213 31.0602 13.7874 29.0678 14.7495 26.9462C14.38 28.2855 14.2336 31.1288 14.6981 31.8242C16.1327 30.8531 17.2242 28.6892 17.9541 26.2073C17.7047 27.4265 17.5251 28.6549 17.0697 29.8741C17.9976 30.0457 18.4701 28.3884 18.779 27.4174C18.8053 27.4688 18.8396 27.5123 18.9335 27.5981C20.1016 26.7483 20.4711 24.7811 20.5569 24.0171C21.6221 24.3179 22.0946 23.9313 22.3611 23.7334C22.5934 24.0594 22.6105 24.5581 22.6792 24.6267C21.5191 23.682 20.2823 24.6267 20.2309 26.1982C20.1016 26.8512 19.7583 27.6072 18.882 28.1905C18.9335 28.2592 19.0627 28.2935 19.2172 28.2855C19.0627 28.552 18.9255 28.775 18.6669 29.0152C18.7355 29.0586 18.8133 29.0586 18.8991 29.0758C18.7012 29.4017 18.3832 29.7025 18.0571 29.8661C18.1349 29.9439 18.1772 29.969 18.4175 30.0297C18.2024 30.3133 17.85 30.5798 17.5159 30.717C18.1521 31.0945 18.6326 31.1379 19.0284 31.1036C18.779 31.6023 18.3751 31.8505 17.9804 32.0746C18.1006 32.1867 18.255 32.2119 18.3751 32.1776C18.0148 32.547 17.6361 32.8386 17.3009 32.9507C17.3615 32.9942 17.4038 33.0628 17.6269 33.0457C17.3867 33.3465 17.0858 33.6381 16.5618 33.7754C16.6647 33.9732 16.8798 33.9469 17.0606 33.9469C16.9142 34.2557 16.468 34.3587 16.0126 34.4536C16.3558 34.5485 16.5881 34.7372 16.3822 34.6858C16.2449 34.8493 16.1076 34.9351 15.8147 34.9866C15.5138 35.03 14.4223 34.6435 13.9853 34.7887C13.8652 34.5394 13.5643 34.3678 13.2462 34.3678C12.8424 34.3678 12.4476 34.6252 12.4213 34.9866C12.3607 34.9431 12.0953 34.9088 12.1376 35.2188C12.2326 35.3995 12.2406 35.5539 12.816 35.7769C12.911 35.8204 13.022 35.8375 13.1684 35.8375C13.3744 35.8284 13.6066 35.7254 13.7782 35.571C14.07 35.6316 14.388 35.6831 14.5596 35.7517C14.1043 35.786 13.9407 36.0434 13.6833 36.2241C13.5711 36.2241 13.4853 36.1898 13.3824 36.1726C13.3217 36.1635 13.2622 36.1555 13.2016 36.1555C12.8755 36.1726 12.5403 36.542 12.506 36.9629C12.506 37.0487 12.5232 37.1265 12.5575 37.2031V37.2717C12.4545 37.3918 12.4968 37.4868 12.5918 37.5554C12.9957 37.7098 13.2279 37.616 13.3732 37.5897C13.7336 37.5462 14.0436 37.2466 14.0436 36.9115C14.4727 36.8337 14.8937 36.7136 15.1351 36.542C15.1443 36.5684 15.1523 36.5935 15.1523 36.6278C15.0058 36.7136 14.7576 36.86 14.6283 37.2889C14.5848 37.2889 14.5505 37.2889 14.5162 37.2889C14.0265 37.2889 13.9064 37.624 13.9144 37.9077C13.9144 38.1741 14.0173 38.3537 14.1638 38.4578C14.1375 38.6294 14.1546 38.7666 14.3274 38.8181C14.912 38.913 15.0573 38.603 15.1694 38.6122C15.1694 38.5344 15.1786 38.483 15.2037 38.4315C15.3845 38.3457 15.5046 38.2771 15.5218 37.942C15.539 37.7361 15.5046 37.6069 15.436 37.5211H15.4532C15.9863 37.0659 16.3295 36.7056 16.5618 36.3956C16.7677 36.4471 17.2322 36.43 17.4553 36.3522V36.438C17.2322 36.6438 17.3775 37.1334 17.6612 37.1162C17.6521 37.1597 17.6521 37.202 17.6612 37.2534C17.842 37.3655 18.1852 37.2878 18.4426 37.3484C18.5799 37.3312 18.6406 37.2454 18.6063 37.0647C18.8122 36.9355 18.9586 36.7125 18.9243 36.438C18.9243 36.0514 18.6234 35.7426 18.2459 35.7163C17.842 35.6728 17.4645 35.9565 17.5411 35.3388C18.6406 34.0419 20.1359 32.0746 20.5478 31.8436C20.5134 31.8001 20.4963 31.7487 20.47 31.6892C20.6336 32.1181 21.2434 32.5733 21.8966 32.531C21.7765 32.308 21.6472 32.1101 21.6049 31.5176C21.6999 31.6549 21.8623 31.7235 22.0694 31.767C21.7685 30.3842 22.2158 29.2416 23.1437 28.2031C23.0659 29.5424 22.9034 30.8909 22.0866 32.2485C22.5076 32.3777 23.0487 31.9568 23.1265 31.6984C23.2123 32.9004 22.0694 34.4559 21.1759 33.7079C20.6176 34.9443 21.9493 35.5367 22.7822 34.8242C22.6357 35.571 22.0602 36.0091 21.4253 36.1806C20.7892 36.3522 20.1279 36.0857 20.5489 35.0644C20.4631 35.0129 19.1829 34.9786 19.1485 36.3693C19.1829 37.1677 19.7332 37.4776 19.7755 37.4856C17.9541 38.8592 19.7927 40.3976 21.288 40.1048C22.4733 39.924 23.1528 38.9542 23.5819 38.2576C23.4526 38.7643 22.9114 40.3701 24.2866 42.1223C25.6435 40.0007 25.068 38.5756 25.0337 38.3514C26.0989 39.9915 27.156 40.1116 27.7738 40.0773C28.8389 40.0945 30.3423 38.4281 28.4271 37.3552C29.4064 36.8909 29.475 34.95 28.0919 34.8562C28.3756 35.6202 27.7738 36.0846 27.1125 36.0239C26.4512 35.9633 25.8414 35.5859 25.6092 34.7269C26.9146 35.3537 27.5164 34.1173 27.0702 33.4563C25.9616 34.3758 25.4296 32.8981 25.2831 32.022C25.5669 32.237 25.8163 32.3137 26.2888 32.2451C25.3872 31.0853 25.1721 29.523 25.0944 28.0624C25.7133 29.0415 26.3139 30.2355 26.2968 31.4124C26.4432 31.3438 26.5714 31.3266 26.8208 30.8108C26.8471 31.6869 26.743 31.807 26.4432 32.1764C26.9329 32.3823 27.569 31.9877 27.8699 31.4639C28.8149 32.7346 29.8377 34.0487 30.8251 35.0621C31.0402 35.2851 31.1168 35.5081 30.7129 35.5859C29.4419 35.1135 29.3034 36.4448 29.8366 36.6255C29.7931 36.7456 29.7851 36.8749 29.8194 37.003C30.0688 37.0807 30.5837 36.8737 30.721 36.8657C30.7816 36.8051 30.7816 36.685 30.7816 36.5649C30.9109 36.5649 30.9967 36.4871 31.0562 36.3842C31.3056 36.4357 31.5458 36.462 31.8639 36.2035L32.8089 37.1482C32.8604 37.1745 32.7574 37.2775 32.8947 37.2946C32.7917 37.9214 33.032 37.99 33.2379 38.1536C33.1945 38.7552 34.0971 38.4109 34.183 38.4452C34.2779 38.3846 34.2859 38.3251 34.2688 38.2565C34.3717 38.1444 34.3202 38.0929 34.2859 38.0163C34.7321 37.3289 34.0971 36.8051 33.7448 36.8657C33.3672 36.454 33.1007 36.2813 32.7998 36.0331C33.4187 36.2653 34.3717 36.5318 34.6475 36.7285C34.7504 37.433 35.3694 37.1402 35.8247 37.1665C35.962 36.9687 35.8934 36.9092 35.8247 36.8406C36.4173 36.0674 35.1634 35.4406 34.6303 35.8958C34.3122 35.6042 34.0377 35.5527 33.7539 35.4315C33.8741 35.3114 34.1235 35.2165 34.6989 35.1821C34.9564 35.3537 35.2058 35.4143 35.4632 35.2256C35.5753 35.4658 35.7892 35.4063 35.867 35.3629C36.0558 35.1478 36.0558 34.8219 36.1073 34.5211C36.0558 34.409 35.978 34.3404 35.8327 34.3495C35.446 33.6884 34.6989 34.0922 34.6555 34.3838C34.0113 34.4353 33.4359 34.5211 32.7563 34.7876C32.5332 34.8562 32.3181 34.616 32.1293 34.4696C32.3009 34.401 32.4554 34.3232 32.4474 34.178C32.1728 34.1517 31.9062 34.178 31.5882 33.8428L31.674 33.6198C31.4246 33.542 31.1671 33.3625 30.8411 32.8558C30.9097 32.8123 30.9704 32.7437 31.0299 32.6328C30.6603 32.547 30.3594 32.3491 30.1192 32.0655C30.205 32.022 30.2908 31.9454 30.3686 31.8253C30.0254 31.6194 29.6981 31.4387 29.0369 30.5798V30.5706C29.7325 30.6827 30.4544 30.6221 30.8754 30.3041C30.5322 30.2092 29.9384 30.0125 29.6638 29.4967C29.7931 29.4875 29.8698 29.4624 29.9556 29.4361C29.4396 29.0929 29.3023 28.9122 29.165 28.6286C29.2771 28.6377 29.4316 28.5851 29.4831 28.5165C29.1478 28.3621 29.0014 28.1562 28.8813 27.9321C29.0186 27.9321 29.165 27.9584 29.276 27.8806C27.9534 27.2881 28.1422 24.1955 26.7155 24.1875C26.0794 24.239 25.9684 24.3762 25.6412 24.5398C25.7362 24.2733 25.8986 24.0239 26.0703 23.7838C26.8437 24.144 27.4626 23.9382 27.6685 23.7574C27.7715 25.003 28.1754 26.3343 29.0346 26.9953C29.181 26.9096 29.3606 26.8066 29.4636 26.6865C29.6181 27.8371 30.0482 29.3571 31.0184 29.229C30.5722 28.1208 30.5802 27.0045 30.5287 25.8882C30.9326 29.1433 31.9383 31.0419 32.762 31.6171C33.1395 31.1105 33.4233 28.7395 33.2437 27.3053C34.0594 28.7738 34.9621 30.1395 35.7183 30.1314C36.0615 30.1314 36.4402 29.8478 36.6725 29.7792C35.4872 29.2977 34.6795 27.1166 33.9576 25.7601C35.3236 27.8989 36.9471 28.8608 37.7125 29.0072C37.7388 28.3461 37.8841 26.499 36.1828 23.9313C39.2238 25.5371 39.8691 24.4986 40.0487 23.9484C38.6746 24.43 36.8269 22.6606 35.5902 22.1013L35.573 22.0499C37.3852 22.8745 39.1643 23.1581 40.2729 22.4616C39.3279 21.0011 38.4081 20.4692 37.4116 20.0907C39.3794 20.3057 40.0235 19.6446 40.0658 18.9058C39.3439 19.1459 38.6826 19.1894 37.8234 19.0521C39.7054 18.6747 40.0487 17.8752 40.0315 17.7986C39.5499 17.4212 38.6392 17.0003 37.8154 16.9225C40.083 16.107 39.3622 15.3339 39.2764 15.0937C38.5717 15.7548 37.3429 16.2271 37.1198 16.21C38.177 15.6598 39.0956 14.2085 39.0362 14.046C38.503 13.7716 37.4127 13.7887 36.9654 13.9168C37.4036 13.4353 37.9882 12.6027 37.455 11.9153C36.9391 12.645 36.4494 13.0236 35.9689 13.4101C36.4151 12.852 36.923 12.2081 37.1027 10.8939C36.4414 10.9797 35.8396 10.9202 34.9804 11.4864C35.47 10.8676 35.779 10.2672 35.8396 9.52832C32.8753 9.73419 29.4041 11.2885 27.7292 15.1715C27.2395 16.3141 27.6262 18.2458 29.1467 18.0228C29.387 19.0018 28.7428 19.5943 27.3345 19.552C27.3082 19.226 27.4031 18.5729 27.0084 18.2378C27.3516 18.2115 27.4203 18.0399 27.4901 17.8947C26.5702 17.6797 26.7167 17.3789 26.8883 15.7479C27.0084 15.7994 27.1457 15.7651 27.2487 15.6701C26.8711 15.3179 26.9912 14.674 27.188 12.6381C27.2223 11.754 27.0416 11.3068 26.8448 11.1524C26.9649 11.0918 27.0427 10.998 26.9821 10.775C27.4031 10.6972 27.2223 10.1825 27.0507 10.011C26.9649 10.2431 26.6045 10.3289 26.2602 10.0716C26.6812 9.88287 26.6812 9.41051 26.3631 9.08341L26.3746 9.06396ZM28.093 30.9572C28.093 30.9572 28.1193 30.9915 28.1365 31.0087C28.1193 30.9915 28.1102 30.9824 28.093 30.9652V30.9572ZM19.4151 31.0167C19.3716 31.1711 19.4494 31.592 19.4586 31.8665C19.5959 31.9351 19.8453 31.8665 20.129 31.7544C20.1119 31.7544 20.0947 31.7716 20.0856 31.7716C19.8705 31.8493 19.613 31.9351 19.4586 31.8665L19.4071 31.2397C19.398 31.1711 19.398 31.0933 19.4163 31.0075L19.4151 31.0167ZM19.3122 31.043C19.3122 31.043 19.2607 31.0602 19.2435 31.0602C19.2698 31.0602 19.295 31.051 19.3122 31.043ZM28.2726 31.1196C28.5907 31.3518 28.9774 31.3518 29.1147 31.3175C29.1147 31.3003 29.1318 31.2832 29.141 31.266C29.141 31.2832 29.1318 31.3095 29.1238 31.3266C28.8309 31.369 28.5392 31.3255 28.2726 31.1196ZM25.5062 36.7022C25.798 37.011 26.9409 37.8528 28.2555 37.449C28.3676 38.1959 27.7315 38.4715 27.2326 38.3766C26.743 38.2737 26.0131 37.8871 25.5062 36.7102V36.7022ZM22.8863 36.8909C22.4572 37.7064 21.7525 38.3937 21.1164 38.5573C20.4894 38.7208 19.8968 38.4109 20.1279 37.5863C21.4939 38.0415 22.6025 37.234 22.8863 36.8817V36.8909Z" fill="white"/>
<path fill-rule="evenodd" clip-rule="evenodd" d="M16.5972 21.8094C16.1327 21.2684 16.2025 20.9253 16.2197 20.7274C15.7128 20.3408 15.8421 20.1944 15.7552 20.04C15.9359 20.3488 16.1076 20.5558 16.2883 20.581C16.6235 20.8898 16.9588 20.9927 17.294 21.1906C15.2403 20.0652 15.8078 18.6916 15.833 18.2958C15.5149 18.305 15.2747 18.2444 15.103 18.1151C15.1637 17.557 15.4554 17.1098 16.0744 16.801C15.9966 16.8273 15.9199 16.8616 15.8421 16.8787C15.7735 16.8616 15.5927 16.4064 15.8158 16.1056C15.9451 16.0278 16.2883 15.9935 16.6407 16.1319C16.8466 15.711 17.1132 15.3416 17.6715 15.1952C17.8088 15.3416 18.0411 15.7625 17.8775 16.5002C18.1097 16.5859 18.3328 16.6889 18.5136 16.9645C18.4529 17.1967 18.4014 17.2653 18.3419 17.3248C19.2435 17.3339 19.3304 16.0713 18.3248 15.942C18.4884 14.7571 16.9679 14.0526 16.3055 15.5131C15.0859 15.1872 14.7587 16.1319 15.2232 16.8787C15.0767 16.9908 13.8663 17.8749 15.0172 19.1456C15.0172 19.7724 15.1717 20.382 16.0229 20.915C16.2631 21.6367 16.4176 21.6367 16.5984 21.7911V21.8094H16.5972Z" fill="#DFDDE2"/>
<path fill-rule="evenodd" clip-rule="evenodd" d="M31.6923 15.1875L31.8559 14.8787C32.9553 14.7072 33.6166 15.4368 33.1876 16.3049C34.072 17.0609 33.5823 18.048 33.0503 18.2378C33.6864 17.7655 33.334 17.6191 33.2311 17.6282C33.2654 17.6111 33.3169 17.5848 33.3603 17.5425C33.326 17.1307 33.1624 16.735 32.5274 16.2626C32.8455 15.9104 32.8112 15.5844 32.7677 15.3522C32.4153 15.2573 32.1064 15.2916 31.8307 15.43L31.6934 15.1726L31.6923 15.1875Z" fill="#DFDDE2"/>
<path fill-rule="evenodd" clip-rule="evenodd" d="M30.1718 17.326C30.2233 17.1545 30.2668 16.88 30.5757 16.6215C30.4807 16.6901 30.3697 16.7759 30.2496 16.8788C29.8549 16.7153 29.5963 16.355 29.5368 16.132C29.7771 15.814 30.3617 15.8655 30.4384 15.8826C30.2668 15.2467 30.4899 14.7744 30.6443 14.5948C31.1683 14.6463 31.4429 14.9128 31.658 15.1529L31.8124 14.8693C31.666 14.4233 31.2278 14.0881 30.713 14.1911C30.2839 14.2345 29.7851 14.612 29.983 15.4961C28.6776 16.0199 29.236 17.2734 30.1638 17.3169L30.1718 17.326Z" fill="#DFDDE2"/>
<path fill-rule="evenodd" clip-rule="evenodd" d="M27.3367 19.5509C27.2853 20.0324 27.1903 20.3835 27.0873 20.7107C28.8572 20.4442 31.4863 19.989 31.134 18.04C30.8079 18.2722 30.4898 18.3145 30.1626 18.3237C30.1112 18.0492 30.0768 17.7484 30.1718 17.3618C29.88 17.7564 29.5357 17.9119 29.1753 17.9977C30.7816 18.7103 28.4969 19.9821 27.5427 19.5521H27.3276L27.3367 19.5509Z" fill="#F1EEF0"/>
<path fill-rule="evenodd" clip-rule="evenodd" d="M20.9356 20.2803C20.9871 20.8304 21.1587 21.4995 21.3223 22.1274C21.2113 21.9467 20.867 20.8647 20.9356 20.2803Z" fill="#E8E6EB"/>
<path fill-rule="evenodd" clip-rule="evenodd" d="M26.211 19.8939C25.782 21.5946 27.672 21.423 26.3483 19.688C27.6365 20.4783 26.7945 21.6552 26.7258 21.9205C26.5199 21.0113 25.7305 20.7791 26.211 19.8939Z" fill="#C3BDC9"/>
<path fill-rule="evenodd" clip-rule="evenodd" d="M17.6715 15.2388L17.0274 17.1202C16.8729 17.0516 16.7185 16.991 16.5114 16.7508C16.5114 16.0977 17.096 15.2902 17.6624 15.2388H17.6715Z" fill="white"/>
<path fill-rule="evenodd" clip-rule="evenodd" d="M18.1784 18.9068L17.0274 17.1295C17.2082 17.1295 17.4141 17.1295 17.6715 17.0688C18.0147 17.3868 18.3843 18.2114 18.1875 18.9068H18.1784Z" fill="#C3BDC9"/>
<path fill-rule="evenodd" clip-rule="evenodd" d="M17.8511 16.5278C18.1944 16.6228 18.4358 16.8538 18.4781 16.9922L17.6624 17.07C17.7402 16.8973 17.7996 16.7165 17.8511 16.5278Z" fill="white"/>
<path fill-rule="evenodd" clip-rule="evenodd" d="M15.833 16.888C15.6786 16.665 15.6786 16.2178 15.833 16.124L16.5114 16.7508C16.3307 16.7942 16.0046 16.8114 15.8238 16.888H15.833Z" fill="white"/>
<path fill-rule="evenodd" clip-rule="evenodd" d="M15.1202 18.1083L17.0194 17.1293C17.0194 17.1293 16.7528 16.8113 16.5126 16.7518C16.0046 16.6821 15.1626 17.318 15.1202 18.1083Z" fill="white"/>
<path fill-rule="evenodd" clip-rule="evenodd" d="M16.7002 18.1166C15.7208 20.9256 19.9482 21.3636 21.0729 21.4402L20.9356 20.7357C18.8911 20.6408 16.9839 20.1947 17.2677 18.6576C16.8981 18.4254 16.8215 18.3224 16.7002 18.1074V18.1166Z" fill="url(#paint0_linear_2275_29569)"/>
<path fill-rule="evenodd" clip-rule="evenodd" d="M16.7002 18.1084C16.4771 18.2205 16.1499 18.272 15.833 18.3143C15.0172 21.7237 20.3006 21.9902 21.3143 22.1195C21.1598 21.8015 21.1163 21.6379 21.074 21.4321C18.3934 21.2594 15.9188 20.2552 16.7002 18.1084Z" fill="url(#paint1_linear_2275_29569)"/>
<path fill-rule="evenodd" clip-rule="evenodd" d="M30.6695 14.6122C30.9612 15.2218 31.2793 15.9435 31.5024 16.6217C31.6317 16.433 31.7518 16.2443 32.0092 16.0293C31.8719 15.3853 31.5447 14.7071 30.6603 14.603L30.6695 14.6122Z" fill="#C3BDC9"/>
<path fill-rule="evenodd" clip-rule="evenodd" d="M30.6695 14.604C30.9704 15.2308 31.3136 15.9776 31.5115 16.6227L30.7896 16.5197C30.3606 16.0554 30.2576 15.1278 30.6695 14.604Z" fill="white"/>
<path fill-rule="evenodd" clip-rule="evenodd" d="M29.562 16.124C29.7508 15.909 30.1466 15.8404 30.4635 15.901C30.5322 16.0817 30.6523 16.3299 30.7816 16.5197L29.5529 16.1252H29.562V16.124Z" fill="#C3BDC9"/>
<path fill-rule="evenodd" clip-rule="evenodd" d="M32.7402 15.3853L32.0103 16.0383L32.492 16.2877C32.8787 15.9617 32.7666 15.3772 32.7494 15.3864H32.7402V15.3853Z" fill="#C3BDC9"/>
<path fill-rule="evenodd" clip-rule="evenodd" d="M32.0103 16.0293C31.8902 16.0556 31.4863 16.6217 31.5115 16.6137L33.3409 17.5505C33.342 17.2325 33.0583 16.4502 32.0103 16.0293Z" fill="#C3BDC9"/>
<path fill-rule="evenodd" clip-rule="evenodd" d="M31.5035 16.6138L30.181 18.3225C31.023 18.2882 31.3662 17.9108 31.6591 17.4464L31.4955 16.6218L31.5035 16.6138Z" fill="#C3BDC9"/>
<path fill-rule="evenodd" clip-rule="evenodd" d="M32.7403 15.3852C32.4565 15.2902 32.079 15.3245 31.8204 15.4629C31.9062 15.6436 31.9669 15.8747 32.0092 16.0382L32.7403 15.3852Z" fill="white"/>
<path fill-rule="evenodd" clip-rule="evenodd" d="M31.5035 16.6138L33.3512 17.5505C33.016 17.825 31.9509 17.5676 31.6591 17.4475L31.5035 16.6138Z" fill="white"/>
<path fill-rule="evenodd" clip-rule="evenodd" d="M31.5035 16.6137L30.7816 16.5107C29.983 16.8459 30.1203 18.2115 30.1798 18.3144L31.5035 16.6137Z" fill="white"/>
<path fill-rule="evenodd" clip-rule="evenodd" d="M30.7736 16.5186L29.562 16.124C29.6226 16.4157 29.983 16.7508 30.2496 16.8629C30.3091 16.8114 30.5757 16.5621 30.7736 16.5186Z" fill="white"/>
<path fill-rule="evenodd" clip-rule="evenodd" d="M31.6843 17.4463C31.4612 17.7814 31.3925 17.8672 31.1431 18.0307C31.5721 20.006 28.7371 20.4955 27.0965 20.7276C27.0793 21.0021 26.9935 21.2263 26.9157 21.4402C27.2075 21.423 33.024 21.3121 31.6843 17.4463Z" fill="white"/>
<path fill-rule="evenodd" clip-rule="evenodd" d="M31.7186 17.4727C32.5 20.3411 29.9407 21.1577 26.9249 21.4322C26.8471 21.613 26.7784 21.8017 26.7098 22.0075C30.8079 21.7239 32.9473 20.4017 32.389 17.6362C32.1224 17.5927 31.9154 17.5321 31.7186 17.4727Z" fill="url(#paint2_linear_2275_29569)"/>
<path fill-rule="evenodd" clip-rule="evenodd" d="M12.5849 37.5704C12.911 37.7248 13.324 37.6218 13.5391 37.5532C13.6592 37.6653 13.5048 38.1114 13.848 38.4293C13.6501 38.5151 12.5598 38.18 12.5769 37.5704H12.5849Z" fill="#F7D256"/>
<path fill-rule="evenodd" clip-rule="evenodd" d="M12.1216 35.2085C12.2589 35.6465 12.6456 35.69 12.8 35.7838C12.8 35.9473 12.371 35.9382 12.3618 36.5398C12.0701 36.5135 11.6571 35.8273 12.1216 35.2176V35.2085Z" fill="#F7D256"/>
<path fill-rule="evenodd" clip-rule="evenodd" d="M14.3125 38.8156C14.8457 38.9014 15.0344 38.6177 15.1546 38.6006C15.2152 38.7721 15.4555 39.0043 15.6877 39.1244C15.5756 39.519 14.2862 39.4332 14.3125 38.8156Z" fill="#F7D256"/>
<path fill-rule="evenodd" clip-rule="evenodd" d="M18.4278 37.3552C18.3934 37.2866 17.7836 37.3552 17.6715 37.2603C17.5937 37.3552 17.5686 37.664 17.3455 37.7841C17.4919 38.0506 18.5136 37.9648 18.4278 37.346V37.3552Z" fill="#F7D256"/>
<path fill-rule="evenodd" clip-rule="evenodd" d="M19.5867 31.9097C19.6817 31.9006 19.7675 31.8834 19.8441 31.8663C19.4838 32.2952 18.882 33.0512 18.2802 33.6871C17.6784 34.323 17.1292 34.9498 17.3352 35.5251C16.9141 35.1133 17.2917 34.7004 17.8512 34.0302C18.4701 33.3017 19.1577 32.4679 19.5867 31.9097ZM18.8316 36.5224C18.8316 36.8141 18.5822 37.0897 17.9896 37.0634C18.66 36.3337 17.302 36.2822 17.6292 35.9814C18.5216 35.4141 18.9003 36.2902 18.8316 36.5224ZM18.1955 37.1663C18.3934 37.2098 18.5136 36.9685 18.5559 37.0885C18.6417 37.3287 18.2035 37.3722 18.1955 37.1663ZM13.6672 34.6238C13.5299 34.6238 13.5723 35.1739 12.7565 35.1476C12.7394 35.1476 12.6616 35.1476 12.6193 35.2254C12.5243 35.4061 12.8515 35.7836 13.1524 35.7664C13.419 35.7492 13.6341 35.5948 13.7713 35.4061C13.832 35.3718 14.261 35.1316 14.2267 35.2346C13.7199 35.4839 13.8491 35.6383 14.6477 35.6989C15.1545 35.6211 15.5847 35.1831 15.7643 35.0973C15.2484 35.1831 14.1489 34.84 13.8995 34.84C13.8652 34.7439 13.7885 34.6673 13.6672 34.6238ZM12.7657 37.4408C12.7485 37.4843 12.7222 37.5186 12.6879 37.5438C12.8343 37.6387 13.2119 37.6124 13.2554 37.5781C13.2119 37.5781 12.895 37.5609 12.7565 37.4408H12.7657ZM16.5377 35.1568C15.8501 35.4919 15.3776 36.7031 13.6764 36.5396C13.6329 36.686 13.5391 36.7203 13.4533 36.7626C13.1009 36.7626 12.689 36.8404 12.6971 37.0634C12.6971 37.3299 13.1181 37.5014 13.3927 37.4671C13.6764 37.4328 13.9681 37.1663 13.9681 36.8998C13.9681 36.8998 13.9944 36.8564 14.0196 36.8564C15.9016 36.4526 16.1934 35.4828 16.5458 35.1476L16.5377 35.1568ZM16.8375 35.1911C16.7597 35.6463 15.2735 37.0119 15.2049 37.458C15.1271 37.3974 15.0161 37.355 14.7759 37.363C14.9131 38.0504 14.3468 38.2563 14.1912 38.1362C14.1912 38.445 14.6374 38.5742 14.9303 38.5136C15.2735 38.445 15.5573 37.9212 15.3593 37.6032C15.4028 37.0359 16.1499 36.8735 16.4588 36.1427C16.7334 36.1427 16.7769 35.7138 17.1121 35.636C17.0434 35.413 16.7597 35.7046 16.8283 35.1717L16.8375 35.1911ZM12.4568 35.1911C12.5003 35.4576 12.6204 35.5777 12.8263 35.7412C12.6627 35.6806 12.5083 35.6383 12.3275 35.4839C12.4911 35.5342 12.371 35.1476 12.4568 35.1911ZM16.0126 34.4603C16.3307 34.5289 16.7425 34.5632 17.3008 34.5289C16.4863 34.8125 16.1167 34.7187 16.0126 34.4603ZM17.0446 33.9456C17.0446 33.989 16.9759 34.0748 16.9153 34.1263C17.31 34.1263 17.6967 34.0405 17.9724 33.7226C17.715 33.8426 17.4221 33.9376 17.0446 33.9376V33.9456ZM17.6029 33.0432C17.5766 33.0946 17.4736 33.2067 17.397 33.2834C17.723 33.3177 18.3683 33.1713 18.6509 32.8545C18.3934 32.9746 17.9804 33.0352 17.6029 33.0352V33.0432ZM18.3591 32.1762C18.2985 32.2368 18.1097 32.4256 18.0411 32.485C18.3671 32.5193 19.0982 32.262 19.3808 31.9521C19.1234 32.0722 18.7367 32.1751 18.3671 32.1751L18.3591 32.1762ZM19.4071 31.2144C19.3899 31.5838 19.2607 31.824 19.1234 31.9875C19.2355 31.9532 19.3465 31.9269 19.4586 31.8754C19.4494 31.6696 19.4323 31.4294 19.398 31.2224L19.4071 31.2144Z" fill="#DFDDE2"/>
<path fill-rule="evenodd" clip-rule="evenodd" d="M29.8538 36.9859C30.1798 37.0637 30.5757 36.8566 30.7644 36.8486C30.8503 37.0202 30.8846 37.2089 31.2461 37.3301C31.0059 37.5966 30.1123 37.6824 29.8538 36.9779V36.9859Z" fill="#F7D256"/>
<path fill-rule="evenodd" clip-rule="evenodd" d="M33.4713 38.4542C33.3512 38.5743 33.2219 38.6944 32.9897 38.8317C33.3935 39.2011 34.2184 38.7882 34.1841 38.4279C34.1063 38.2907 33.8752 38.5915 33.4622 38.4542H33.4713Z" fill="#F7D256"/>
<path fill-rule="evenodd" clip-rule="evenodd" d="M35.0513 37.1664C35.0513 37.6479 34.9998 37.776 34.9392 37.9395C35.1715 38.0939 35.7641 37.7245 35.8327 37.1584C35.7732 37.02 35.5158 37.2601 35.0513 37.1664Z" fill="#F7D256"/>
<path fill-rule="evenodd" clip-rule="evenodd" d="M36.1428 34.5117C35.9712 34.5552 36.0741 35.1385 35.8762 35.3192C36.0398 35.405 36.1508 35.62 36.2629 35.8179C36.6405 35.5342 36.6233 34.7187 36.1428 34.5117Z" fill="#F7D256"/>
<path fill-rule="evenodd" clip-rule="evenodd" d="M30.2667 36.9341C30.4475 36.8826 30.6443 36.7877 30.7129 36.814C30.825 36.4274 30.5665 36.6504 30.2667 36.9341ZM30.0082 36.6253C30.3605 36.6253 30.8582 36.6859 30.9875 36.2135C31.5378 36.48 32.1133 35.9734 31.984 35.501C31.984 35.501 31.8032 36.3085 30.6695 35.8018C30.4372 35.7675 30.1283 35.9139 30.1455 36.0683C30.1626 36.2662 30.5493 36.4377 30.0082 36.6356V36.6253ZM33.024 36.2296C33.3157 36.5212 33.4965 36.7968 33.4358 37.0107C33.6166 36.7534 33.6338 36.9078 33.6681 37.0107C33.8832 37.1743 34.0376 37.6718 33.5045 37.9989C33.7539 38.0675 33.7791 38.2906 33.5045 38.3683C33.5136 38.6005 34.1486 38.3077 34.2001 38.4026C34.2516 38.3855 34.2687 38.3077 34.2779 38.2391C34.3294 38.1705 34.3385 38.0847 34.2779 37.9817C34.6818 37.3035 34.1829 36.9341 33.7447 36.8563C33.4782 36.5818 33.2459 36.4183 33.0148 36.2296H33.024ZM33.0411 35.4999C33.4702 35.7743 34.0639 35.9894 34.6223 36.3496C35.1806 35.7915 35.5936 36.7099 34.7939 36.7705C34.9998 37.14 35.851 37.1137 35.8247 36.822C36.3578 35.8167 34.914 35.5685 34.6303 35.9288C34.1921 35.6794 33.7974 35.4049 33.1693 35.2928C34.406 35.8258 34.6211 35.9882 34.406 36.0225C34.2092 36.05 33.5136 35.6543 33.0411 35.4999ZM33.4187 34.7267C33.7619 34.5803 34.501 34.5975 34.6989 34.4179C35.025 33.8254 35.6268 33.9798 35.8247 34.3664C35.962 34.3664 36.065 34.3927 36.0821 34.5037C35.9528 34.7873 36.0386 35.4747 35.6782 35.302C35.7469 35.2505 35.7126 35.1991 35.6782 35.1476C35.5238 35.302 35.5238 35.1304 35.5238 35.0527C35.2915 35.3191 35.1806 35.2757 35.017 35.2334C35.0604 35.2162 35.0776 35.1727 35.0685 35.0961C35.7389 34.8388 35.1543 34.0565 34.6131 34.7873C34.4323 34.8388 33.7024 34.6752 33.4278 34.7095L33.4187 34.7267ZM28.0758 30.9741L28.0495 31.0519C28.3241 31.3012 30.7038 33.9204 31.4085 35.0366C31.3056 34.7965 31.3479 34.7015 30.9269 34.1949C32.0012 34.7965 32.5332 34.2635 32.4645 34.1434C32.3787 34.1525 32.3181 34.1697 32.2757 34.1434C31.2792 34.6501 30.5402 33.8083 30.102 33.2501C30.6603 33.6962 31.0218 33.774 31.6053 33.8083C31.6659 33.7053 31.674 33.6539 31.6831 33.6024C31.6316 33.5933 31.5801 33.5761 31.5458 33.5509C30.8674 33.8083 30.0597 33.2936 29.4235 32.4347C30.0253 32.8727 30.4635 32.8292 30.8754 32.8292C30.936 32.7515 31.0298 32.692 31.039 32.5971C30.9784 32.5971 30.936 32.5799 30.8845 32.5628C30.4635 32.7092 29.4155 32.6577 28.9167 31.7896C29.2599 32.0218 29.6466 32.159 30.1363 32.0389C30.2313 31.9612 30.3422 31.8925 30.3594 31.8068C29.7496 31.9612 29.157 31.9612 28.6158 31.4808C28.7703 31.4808 28.9339 31.4293 29.0975 31.3516C28.7794 31.3779 28.4442 31.3516 28.0667 30.9741H28.0758Z" fill="#DFDDE2"/>
<path fill-rule="evenodd" clip-rule="evenodd" d="M20.7045 12.3188C21.8898 12.9547 23.2478 11.5114 24.2008 12.2925C24.3038 12.2925 24.321 12.2239 24.3038 12.1553C23.1952 11.1591 22.0099 12.6288 20.7045 12.3188Z" fill="#C3BDC9"/>
<path fill-rule="evenodd" clip-rule="evenodd" d="M20.2743 30.4665L20.1794 30.5614C20.0672 31.0773 19.7927 31.4981 19.4746 31.8927C19.7664 31.9362 20.1187 31.7806 20.4539 31.6262C20.2389 31.2317 20.1965 30.9652 20.2652 30.4585L20.2743 30.4665Z" fill="#C3BDC9"/>
<path fill-rule="evenodd" clip-rule="evenodd" d="M20.6095 29.7712C20.7731 30.0972 21.0912 29.5653 21.2365 29.4189C21.0386 30.1235 20.6439 30.836 21.5031 31.4971C21.0649 31.5406 20.9448 31.7293 21.3486 32.1673C20.5489 31.7727 20.1027 31.1288 20.6095 29.7712Z" fill="#DFDDE2"/>
<path fill-rule="evenodd" clip-rule="evenodd" d="M21.2708 29.3845C20.9962 30.7764 21.4516 31.3254 21.9069 31.4547C21.7353 29.9518 22.3359 28.8698 23.17 28.0532C23.1185 26.6533 22.9206 26.0174 22.7661 25.0132C22.7753 25.4855 23.1093 26.7654 22.8862 27.6586C22.654 28.5953 21.9847 29.4966 21.28 29.3937L21.2708 29.3845Z" fill="#CECAD5"/>
<path fill-rule="evenodd" clip-rule="evenodd" d="M18.4964 30.8278C19.287 30.8793 19.9311 30.63 20.4551 30.0981C20.1713 30.7935 19.5181 31.1286 18.5479 31.0257C18.9003 30.9651 18.9083 30.9045 18.4964 30.8278Z" fill="#C3BDC9"/>
<path fill-rule="evenodd" clip-rule="evenodd" d="M18.4015 30.0203C18.3237 30.1404 18.2642 30.1918 18.2036 30.2525C19.4495 30.416 20.1451 29.8236 20.6176 29.2986C21.3052 29.3421 21.7857 28.8868 22.1987 28.4316C21.7342 28.8011 21.2537 29.1019 20.7125 29.0332C20.1794 29.8064 19.4243 30.1667 18.4015 30.0123V30.0203Z" fill="#C3BDC9"/>
<path fill-rule="evenodd" clip-rule="evenodd" d="M18.8912 29.0755C18.7962 29.2733 18.771 29.2642 18.7195 29.3328C19.1406 29.4186 19.7252 29.255 20.7125 28.4315C21.6919 28.4052 22.0957 27.7705 22.3795 27.4868C21.8635 27.9329 21.3315 28.1742 20.7983 28.1822C20.2824 28.7152 19.716 29.1441 18.8992 29.0755H18.8912Z" fill="#C3BDC9"/>
<path fill-rule="evenodd" clip-rule="evenodd" d="M19.2092 28.2946L19.0284 28.5691C19.3717 28.5519 19.819 28.5691 20.772 27.685C21.502 27.5306 22.1644 26.9804 22.7399 26.0186C22.2582 26.611 21.82 27.2378 20.8578 27.3235C20.6084 27.8908 19.9563 28.1219 19.2081 28.2854V28.2946H19.2092Z" fill="#C3BDC9"/>
<path fill-rule="evenodd" clip-rule="evenodd" d="M27.251 29.4531C27.1823 29.9598 27.0702 30.415 26.8471 30.7673C26.8734 30.9308 26.8643 31.1024 26.8563 31.2659C27.1995 30.9137 27.4478 29.9255 27.251 29.4531Z" fill="#C3BDC9"/>
<path fill-rule="evenodd" clip-rule="evenodd" d="M27.7487 29.6943C28.1182 30.6482 27.783 31.9189 26.6149 32.1419C26.9753 32.2963 28.0667 31.7988 28.2212 30.3211L29.1147 31.3264C29.1662 31.0943 29.1925 30.8621 29.0289 30.519C28.3241 30.3726 28.0919 30.0901 27.7578 29.6943H27.7487Z" fill="#C3BDC9"/>
<path fill-rule="evenodd" clip-rule="evenodd" d="M28.3241 30.0034C28.8058 30.2093 29.6467 30.5272 30.4887 30.1578C30.618 30.2093 30.7381 30.2528 30.8663 30.2699C30.5825 30.5707 29.7748 30.6393 29.0369 30.5444C30.0517 30.4072 28.514 30.2951 28.3241 30.0034Z" fill="#C5BDCB"/>
<path fill-rule="evenodd" clip-rule="evenodd" d="M26.6492 28.3027C27.0015 28.5521 27.3882 28.6973 27.8344 28.6973C28.1697 29.3241 29.1318 29.5048 29.673 29.4705C29.6993 29.5563 29.7588 29.634 29.8274 29.7027C29.3721 29.7027 28.7875 29.5563 27.8939 28.9901C27.6548 28.9043 26.8036 28.5086 26.6492 28.3027Z" fill="#C4BDCB"/>
<path fill-rule="evenodd" clip-rule="evenodd" d="M26.4684 27.3579C26.8208 27.6496 27.1983 27.796 27.6113 27.8474C28.0323 28.2935 28.5312 28.5257 29.1833 28.6114L29.3206 28.8516C29.1146 28.8688 28.1262 28.4307 27.7658 28.0956C27.156 27.9412 26.7006 27.6404 26.4775 27.3659L26.4684 27.3579Z" fill="#C3BDC9"/>
<path fill-rule="evenodd" clip-rule="evenodd" d="M26.5462 26.6016C26.9501 26.9961 27.4054 27.1597 27.775 27.1597C28.0495 27.4514 28.3081 27.7522 28.8916 27.9066C28.9179 27.9843 28.9522 28.053 28.9946 28.1044C28.5564 28.1044 27.9466 27.4857 27.8779 27.3919C27.2853 27.3061 26.6149 27.0053 26.5382 26.6107L26.5462 26.6016Z" fill="#C3BDC9"/>
<path fill-rule="evenodd" clip-rule="evenodd" d="M23.0327 24.8152C23.162 24.7637 23.2215 24.6951 23.2821 24.6265C23.3851 24.7729 23.5395 24.8072 23.686 24.8415C23.4023 24.8323 23.3679 24.9616 23.5052 25.2018C23.5659 25.2967 23.6597 26.6966 23.686 27.5384C23.686 28.3196 23.7981 28.8262 23.9526 29.1705C23.3336 28.6467 23.678 25.5037 23.0327 24.8243V24.8152Z" fill="#DFDDE2"/>
<path fill-rule="evenodd" clip-rule="evenodd" d="M24.0635 24.876C24.4068 24.8417 24.7511 24.8245 25.163 24.5752L25.3094 24.7468C25.0177 25.3907 24.8449 26.9027 24.6653 28.2591C24.7168 27.3922 24.734 26.619 24.6916 26.404C24.5967 25.9145 24.6138 25.6229 24.623 25.5371C24.8118 24.8588 24.2969 25.0213 24.0647 24.8668L24.0635 24.876Z" fill="#CECAD5"/>
<path fill-rule="evenodd" clip-rule="evenodd" d="M25.4467 24.8242L25.4902 24.8677C24.9056 26.1384 25.4902 29.0503 24.2363 30.5188L24.21 29.9516C25.163 29.3248 24.9227 26.1121 25.4467 24.8242Z" fill="#C3BDC9"/>
<path fill-rule="evenodd" clip-rule="evenodd" d="M23.3416 27.9595C23.3416 30.0376 23.6769 30.4334 22.2593 32.1684C22.9206 31.6183 23.6597 29.9358 23.5647 30.8977C23.7283 30.5889 23.8908 30.279 23.9343 30.0136C23.3851 29.0758 23.4103 28.5348 23.3416 27.9595Z" fill="#C3BDC9"/>
<path fill-rule="evenodd" clip-rule="evenodd" d="M24.4926 30.2524L24.226 30.5704L24.3038 33.3188C24.3381 32.1762 24.3988 31.1285 24.4926 30.2524Z" fill="#C3BDC9"/>
<path fill-rule="evenodd" clip-rule="evenodd" d="M25.1195 28.251C25.0509 28.6799 24.9994 29.1877 24.8873 29.4702C25.076 31.6684 25.6778 31.8835 26.1755 32.0813C25.3438 30.9044 25.1802 29.3249 25.1195 28.251Z" fill="#DFDDE2"/>
<path fill-rule="evenodd" clip-rule="evenodd" d="M23.5224 31.1369C23.265 31.7214 23.3508 32.8376 22.6289 33.5593C23.2307 33.2505 23.4618 32.5025 23.4789 31.9192L23.5396 32.538C23.3416 33.8007 22.7662 34.1438 22.3715 34.2124C22.4321 34.1952 23.0591 34.3245 23.6425 33.0527C23.6597 33.517 23.3336 34.0317 22.9126 34.2033C23.2822 34.2124 23.6517 33.8773 23.8405 33.6108C23.5396 32.7095 23.5316 31.9192 23.5396 31.1289L23.5224 31.1369Z" fill="#E0DEE2"/>
<path fill-rule="evenodd" clip-rule="evenodd" d="M23.805 33.0259C23.8656 33.3267 23.9594 33.7648 24.2947 34.1937L24.321 34.7267C24.4754 34.5208 25.0772 32.8201 25.0852 32.2619C25.1115 32.0812 25.1195 31.8753 25.2488 32.0126C25.266 32.0217 25.2832 32.0217 25.3003 32.0126C25.1195 31.8833 24.9228 31.2737 24.7843 31.0679C24.8964 31.7289 24.9731 32.6737 24.2947 34.0827C24.0887 33.8426 23.9423 33.4468 23.805 33.0431V33.0259Z" fill="#C3BDC9"/>
<path fill-rule="evenodd" clip-rule="evenodd" d="M26.7098 34.1079C25.9799 34.4854 25.3529 33.575 25.0428 33.0168L25.1801 32.2528C25.1801 32.2528 25.2408 32.2093 25.2579 32.2437C25.3781 33.0854 25.9112 34.0725 26.7018 34.1159L26.7098 34.1079Z" fill="#DFDDE2"/>
<path fill-rule="evenodd" clip-rule="evenodd" d="M24.9136 33.3096L24.8358 33.5417C25.1195 34.1685 25.4548 34.3835 25.8838 34.5471C25.0337 34.125 24.9742 33.7225 24.9136 33.3096Z" fill="#DFDDE1"/>
<path fill-rule="evenodd" clip-rule="evenodd" d="M24.0978 34.3838L24.3209 34.7704L24.4925 34.3929C24.4582 35.4154 24.3976 36.6427 24.3633 37.7772C24.2695 36.6335 24.1402 35.4486 24.0978 34.3838Z" fill="#DFDDE2"/>
<path fill-rule="evenodd" clip-rule="evenodd" d="M24.7591 33.748C24.742 33.8087 24.7157 33.8601 24.6985 33.8944C25.4547 36.6943 24.5612 38.18 24.3633 38.403C23.8393 37.4755 23.8473 36.5651 23.7272 35.7839C23.7958 36.4884 23.718 37.3988 24.329 38.5323V38.9966C25.076 38.0771 25.5314 36.7892 24.9559 34.0157C24.8701 33.9471 24.8266 33.8441 24.758 33.7583L24.7591 33.748Z" fill="#C3BDC9"/>
<path fill-rule="evenodd" clip-rule="evenodd" d="M24.0887 38.7379C24.1493 38.8409 24.2088 38.9438 24.3381 39.0296C24.5017 38.858 24.536 38.7722 24.6047 38.6602C24.4674 39.399 24.4067 40.1287 24.3038 40.8584C24.2351 40.1367 24.1836 39.3464 24.0887 38.7288V38.7379Z" fill="#DFDDE2"/>
<path fill-rule="evenodd" clip-rule="evenodd" d="M25.4124 38.8581C25.2488 38.4978 25.06 38.197 25.1802 37.8012C25.1539 37.6812 25.1024 37.664 25.0509 37.6377C25.0166 37.8527 24.9388 37.998 24.8793 38.1444C25.163 39.8451 24.7592 40.7555 24.2947 41.5287C23.5304 40.4982 23.6677 39.3899 23.6585 38.4372C23.4354 40.3701 23.8988 41.2118 24.2855 41.6488V42.1211C25.377 40.5233 25.274 39.0296 25.0326 38.3251C25.1527 38.5058 25.2648 38.7025 25.4193 38.8661L25.4124 38.8581Z" fill="#C3BDC9"/>
<path fill-rule="evenodd" clip-rule="evenodd" d="M21.28 33.9801C21.4264 35.38 23.2043 34.9591 23.9262 33.8943L23.8576 33.7056C23.1872 34.5725 21.7525 35.3537 21.28 33.9801Z" fill="#C4BEC9"/>
<path fill-rule="evenodd" clip-rule="evenodd" d="M23.7626 34.4946C23.1094 35.8511 22.3188 36.8141 21.2365 36.9079C21.9756 36.9685 22.7662 36.3669 23.0144 36.1096C23.1952 35.8008 23.4183 35.6887 23.1952 36.1096C23.1094 36.256 23.0236 36.3589 22.8863 36.4962C23.0579 36.4275 23.4194 35.8694 23.4961 35.8179C23.5304 35.2335 23.6597 34.9075 23.7626 34.5038V34.4946Z" fill="#DFDDE2"/>
<path fill-rule="evenodd" clip-rule="evenodd" d="M23.4961 35.8521C23.4869 36.0065 23.4698 36.1609 23.4698 36.2901C22.4389 37.3469 21.5534 37.682 20.6084 37.4578C21.391 37.475 22.2936 37.5608 23.4961 35.8521Z" fill="#C3BECA"/>
<path fill-rule="evenodd" clip-rule="evenodd" d="M20.1634 36.4621C19.9403 35.9039 20.0261 35.4487 20.4208 35.1056C19.6131 35.0885 18.7367 36.5913 20.232 37.3473C19.4838 36.9093 19.4495 35.9989 19.6897 35.6981C19.8533 35.4407 20.0936 35.363 19.922 35.6546C19.8099 36.127 20.0169 36.3591 20.1542 36.4529L20.1634 36.4621Z" fill="#DFDDE2"/>
<path fill-rule="evenodd" clip-rule="evenodd" d="M24.9994 34.091C25.1538 34.3312 25.3426 34.5462 25.584 34.6926C25.5154 36.0662 27.0279 36.9686 28.0495 36.5821C27.4649 37.011 25.5325 36.908 24.9994 34.083V34.091Z" fill="#DFDDE2"/>
<path fill-rule="evenodd" clip-rule="evenodd" d="M25.2236 35.8179V35.9814C25.9284 37.1583 27.1228 37.2006 27.4832 37.1583C26.3746 37.14 25.679 36.6253 25.2236 35.8179Z" fill="#C5C0CE"/>
<path fill-rule="evenodd" clip-rule="evenodd" d="M28.307 34.959C29.244 35.6121 28.9854 36.6254 27.9809 37.0463C28.7543 36.5396 29.141 35.8774 28.307 34.959Z" fill="#E1DFE3"/>
<path fill-rule="evenodd" clip-rule="evenodd" d="M27.2075 37.3287C28.101 37.4923 29.6043 36.7877 28.7966 35.2334C29.6135 36.1873 28.7028 37.888 27.2075 37.3287Z" fill="#C3BDC9"/>
<path fill-rule="evenodd" clip-rule="evenodd" d="M25.2237 36.7534C25.2237 36.8392 25.2145 36.8998 25.1893 37.0451C25.9536 38.5651 26.3838 38.668 26.8734 39.0638C25.9444 38.3775 25.4719 37.5872 25.2237 36.7534Z" fill="#E0DEE3"/>
<path fill-rule="evenodd" clip-rule="evenodd" d="M26.4775 39.614C26.6411 39.6827 26.7613 39.6312 26.8986 39.6827C28.0667 40.0864 29.5105 39.399 29.0803 37.9819C29.8446 38.7288 28.4362 40.8676 26.4855 39.614H26.4775Z" fill="#C5BECC"/>
<path fill-rule="evenodd" clip-rule="evenodd" d="M28.5312 37.5703C29.4155 38.4464 28.5049 39.6576 27.3287 39.2447C28.5827 39.4163 29.046 38.3778 28.5312 37.5703Z" fill="#C3BECA"/>
<path fill-rule="evenodd" clip-rule="evenodd" d="M19.9391 37.5609C18.7275 38.3592 19.3979 39.3383 19.9563 39.5704C19.7412 39.416 19.5181 38.8659 20.1794 39.1667C20.3944 39.2616 20.5912 39.2696 20.7811 39.2525C19.5444 38.8487 19.819 38.1877 19.9391 37.5518V37.5609Z" fill="#DFDDE2"/>
<path fill-rule="evenodd" clip-rule="evenodd" d="M23.4789 36.4541C23.5052 36.8658 23.5567 37.201 23.6162 37.4594C23.2295 38.2326 22.757 38.7564 22.2764 39.1259C22.8439 38.5757 23.2821 38.0267 23.4709 37.4514C22.4824 38.9886 21.8039 39.2288 21.0992 39.2631C21.9756 39.0652 23.2558 38.3092 23.488 36.4633L23.4789 36.4541Z" fill="#DFDDE2"/>
<path fill-rule="evenodd" clip-rule="evenodd" d="M23.6254 37.5186C23.6517 37.6386 23.686 37.7679 23.7547 37.8617C22.5088 40.2578 20.851 40.1892 20.2835 39.9913C21.3578 40.1034 20.9883 39.9055 20.6359 39.8449C21.907 39.8884 23.0327 39.0203 23.6254 37.5254V37.5186Z" fill="#C3BEC9"/>
<path fill-rule="evenodd" clip-rule="evenodd" d="M22.6025 24.3431C22.7661 24.231 22.8428 24.1029 22.9286 23.9736C22.9629 24.0423 23.0236 24.0937 23.1094 24.1543C22.8771 24.2321 22.7913 24.5752 22.6632 24.5752C22.646 24.4975 22.6369 24.4117 22.6025 24.3351V24.3431Z" fill="#C5BECB"/>
<path fill-rule="evenodd" clip-rule="evenodd" d="M23.1265 24.1632C23.4789 24.2924 23.8393 24.2753 24.2775 23.9653C24.321 24.0088 24.3724 24.0511 24.4239 24.1026C24.0029 24.4034 23.3073 24.3256 23.1185 24.1632H23.1265Z" fill="#C3BDC9"/>
<path fill-rule="evenodd" clip-rule="evenodd" d="M24.6299 24.1544C24.8793 24.1979 25.1287 24.2574 25.4456 24.0767C25.4891 24.1373 25.5406 24.1887 25.5829 24.2311C25.4799 24.334 24.9388 24.326 24.6207 24.1533L24.6299 24.1544Z" fill="#C3BDC9"/>
<path fill-rule="evenodd" clip-rule="evenodd" d="M25.6618 23.4931C25.7396 23.5445 25.8849 23.6909 26.0222 23.7676C25.9193 23.914 25.8163 24.0764 25.7133 24.2662C25.2488 23.8625 25.5749 23.4416 25.6618 23.4931Z" fill="#C3BDC9"/>
<path fill-rule="evenodd" clip-rule="evenodd" d="M22.2845 23.6052C22.3531 23.7001 22.3966 23.7596 22.4389 23.8282C22.7227 23.6303 22.8165 23.4165 22.9114 23.2094C22.868 23.1831 22.8336 23.1488 22.7993 23.0894C22.5762 23.4839 22.4389 23.5354 22.2833 23.6132V23.6052H22.2845Z" fill="#C3BDC9"/>
<path fill-rule="evenodd" clip-rule="evenodd" d="M22.9298 23.2189L22.8954 23.2795C23.4538 23.5974 24.3645 23.8376 25.5154 23.2532L25.4033 23.021C24.6562 23.6054 23.8141 23.7084 22.9298 23.2189Z" fill="#C3BDC9"/>
<path fill-rule="evenodd" clip-rule="evenodd" d="M25.6092 23.2097C25.9353 23.1491 25.8243 22.7373 26.1332 22.6173C26.632 23.3641 27.4901 23.1754 27.8344 22.6001L27.8859 23.021C27.5599 23.2269 27.1217 23.5963 26.3906 23.2532C26.33 23.3733 26.322 23.562 26.3128 23.777C25.9959 23.6741 25.7385 23.5014 25.6092 23.2097Z" fill="#C3BDC9"/>
<path fill-rule="evenodd" clip-rule="evenodd" d="M26.624 21.8188C26.7533 22.059 26.624 22.6172 26.6412 22.807C26.4009 22.7727 26.2636 22.5749 26.1343 22.4124C26.1607 22.4124 26.1778 22.4033 26.1858 22.3781C26.211 22.2226 26.5027 22.1528 26.624 21.8188Z" fill="#C3BDC9"/>
<path fill-rule="evenodd" clip-rule="evenodd" d="M24.4331 22.505L24.4067 22.5393C24.7934 22.6765 25.584 22.7452 26.1503 22.3677L26.0474 22.187C25.6526 22.5221 25.1458 22.6857 24.4331 22.505Z" fill="#C3BECA"/>
<path fill-rule="evenodd" clip-rule="evenodd" d="M24.2089 22.377C24.2775 22.4284 24.3461 22.4799 24.4068 22.497C23.8828 22.9786 23.1185 22.8493 22.3531 22.4456C22.3531 22.4193 22.3531 22.4021 22.3531 22.377C23.2387 22.8573 23.8576 22.7201 24.2089 22.377Z" fill="#C3BDC9"/>
<path fill-rule="evenodd" clip-rule="evenodd" d="M22.3108 22.377C22.4996 22.6686 22.027 22.7635 22.019 23.2016L21.8303 22.9694C21.8303 22.6858 22.2078 22.7292 22.3028 22.377H22.3108Z" fill="#C3BEC9"/>
<path fill-rule="evenodd" clip-rule="evenodd" d="M21.7948 22.8743L21.4344 22.3242C21.0569 21.8255 22.3108 21.7318 22.1735 20.8042C22.2513 20.8648 22.3371 20.9506 22.4137 20.9929C22.3703 21.7398 21.709 21.7226 21.701 22.2293C21.6152 22.195 21.5717 22.1172 21.5545 22.0143C21.5202 22.0406 21.5111 22.0406 21.4767 22.0749C21.3223 22.2727 21.5545 22.3837 21.7856 22.8652L21.7948 22.8743Z" fill="#C3BEC9"/>
<path fill-rule="evenodd" clip-rule="evenodd" d="M22.1392 21.8704C22.5087 21.9219 22.8691 21.8704 23.2135 21.5444C23.2741 21.6051 23.3164 21.6645 23.4022 21.716C22.964 21.9813 22.3703 22.0156 22.1392 21.8704Z" fill="#C3BDC9"/>
<path fill-rule="evenodd" clip-rule="evenodd" d="M23.4194 21.7237L23.3759 21.758C23.9857 22.1103 24.8369 22.1011 25.2923 21.7923C25.2236 21.758 25.1721 21.7065 25.1206 21.6631C24.5703 22.0668 23.7546 21.9376 23.4194 21.7317V21.7237Z" fill="#C5BECB"/>
<path fill-rule="evenodd" clip-rule="evenodd" d="M25.3095 21.7923L25.2751 21.8358C25.7042 22.0073 26.2465 21.9902 26.6149 21.7843C26.5886 21.7157 26.5634 21.647 26.5119 21.5864C26.108 21.9044 25.7042 21.8781 25.3003 21.7923H25.3095Z" fill="#C4BEC9"/>
<path fill-rule="evenodd" clip-rule="evenodd" d="M22.4824 21.0365C23.1185 21.3625 23.8141 21.1486 24.1917 20.8135C24.2603 20.8993 24.321 20.9427 24.3896 20.985C23.9171 21.3979 22.6975 21.3465 22.4824 21.0365Z" fill="#C4BEC9"/>
<path fill-rule="evenodd" clip-rule="evenodd" d="M24.4068 20.9942L24.3724 21.0205C24.9479 21.415 25.8243 21.1749 26.0565 21.0205C26.0302 20.9255 25.9959 20.8489 25.9707 20.7803C25.5669 21.1234 24.9651 21.2355 24.4068 20.9861V20.9942Z" fill="#C3BDC9"/>
<path fill-rule="evenodd" clip-rule="evenodd" d="M20.8669 20.1866L20.9527 20.23C21.0386 20.1008 21.1164 20.0756 21.1507 20.1271C21.185 20.1786 21.1164 20.2643 21.2113 20.3501C21.5031 20.1179 22.1906 19.9555 22.2684 19.6113C22.3977 19.9635 22.8188 19.9715 23.162 20.5731C23.0842 20.1179 22.6117 19.9887 22.4149 19.6799C22.2261 19.3711 22.3371 18.9845 22.4927 18.4858C22.1746 18.9147 22.424 19.5335 21.9001 19.808C21.5648 19.9795 20.9379 19.9452 20.8692 20.1774L20.8669 20.1866Z" fill="#C3BDC9"/>
<path fill-rule="evenodd" clip-rule="evenodd" d="M23.6162 18.0044L23.6334 18.4161C23.0922 18.6312 23.5132 19.9876 23.2981 20.2884C23.2123 19.1287 22.7307 18.7078 23.6162 18.0124V18.0044Z" fill="#C3BDC9"/>
<path fill-rule="evenodd" clip-rule="evenodd" d="M24.0544 18.9927H24.123C24.1917 19.7487 24.9903 19.8253 25.1287 20.5733C24.9571 20.0575 24.5097 19.9031 24.2615 19.6286C24.1242 20.213 23.4194 20.3846 23.2478 20.7106C23.1952 20.4441 24.218 20.0666 24.0544 18.9927Z" fill="#C3BDC9"/>
<path fill-rule="evenodd" clip-rule="evenodd" d="M25.2659 18.2627C24.8449 18.9238 25.6778 19.3447 25.2316 20.4438C25.4639 19.0096 24.4582 19.1217 25.0943 18.082C25.3174 18.2971 26.0737 18.5109 26.1423 18.8723C25.8849 18.5121 25.4982 18.4858 25.2659 18.2536V18.2627Z" fill="#C3BDC9"/>
<path fill-rule="evenodd" clip-rule="evenodd" d="M26.1343 18.9756C26.2121 19.2329 26.2808 19.3279 26.3494 19.4994C26.1172 20.2463 25.2156 20.5048 25.1641 20.7792C25.0085 20.427 26.1423 20.2383 26.1343 18.9756Z" fill="#C3BDC9"/>
<path fill-rule="evenodd" clip-rule="evenodd" d="M26.9924 18.2114C26.846 18.1771 26.7178 18.2114 26.5542 18.0479C26.5805 18.288 26.5371 18.4344 26.5107 18.5808C26.8025 18.7524 27.0004 20.341 27.1205 20.4097C27.0599 19.7314 27.0862 18.829 26.6743 18.3395L26.6915 18.2537C26.8208 18.2972 26.9157 18.288 26.9924 18.2114Z" fill="#C3BDC9"/>
<path fill-rule="evenodd" clip-rule="evenodd" d="M21.4516 19.4476C21.7353 19.0267 21.9847 18.528 22.3451 18.2707C22.7055 18.0133 22.9378 18.1163 23.6677 17.5147L23.9423 16.793C23.3233 17.6942 22.5934 18.3221 21.5454 18.1071C21.6061 18.1414 21.6404 18.2272 22.0786 18.2535C21.8555 18.4685 21.6667 18.9409 21.4516 19.4476Z" fill="#C3BDC9"/>
<path fill-rule="evenodd" clip-rule="evenodd" d="M21.2971 17.4464C21.8474 17.7209 22.5259 17.8673 23.686 16.21C23.9354 16.1414 24.1756 16.0122 24.3987 15.772C23.6505 17.5585 21.5374 18.6576 21.2971 17.4464Z" fill="#DFDDE2"/>
<path fill-rule="evenodd" clip-rule="evenodd" d="M23.7626 18.4769C24.647 15.144 27.3276 13.1517 25.0085 11.3823C26.6926 14.2943 24.012 15.5318 23.7626 18.4769Z" fill="#F1EEF0"/>
<path fill-rule="evenodd" clip-rule="evenodd" d="M23.1265 15.6004C23.17 16.4765 24.2775 15.8235 24.544 15.2573C24.0979 15.557 23.6505 15.8326 23.1265 15.6004Z" fill="#DFDDE2"/>
<path fill-rule="evenodd" clip-rule="evenodd" d="M24.7855 14.2429C24.8884 14.0965 24.9056 14.2337 25.0772 14.2692C24.6733 15.111 23.9858 15.3431 23.6162 15.3603C24.123 15.0938 24.5875 14.793 24.7843 14.2349L24.7855 14.2429Z" fill="#DFDDE2"/>
<path fill-rule="evenodd" clip-rule="evenodd" d="M24.5189 12.8258L24.6047 12.9116C24.7248 12.9116 24.8449 12.9116 24.9742 12.7915C24.9742 12.8944 24.9399 12.9459 24.8792 12.9722C24.9479 13.5818 24.8792 13.9432 24.7934 14.2177C24.8964 14.1056 24.9822 14.2612 25.0852 14.2612C25.2396 14.021 25.4971 13.1792 25.0852 12.4575C25.0943 12.6634 24.8701 12.8784 24.5269 12.8269L24.5189 12.8258Z" fill="#C3BDC9"/>
<path fill-rule="evenodd" clip-rule="evenodd" d="M23.0751 12.5589C23.7455 12.2844 24.1322 12.7647 24.432 12.8082C24.9136 13.5127 24.4148 14.1223 24.0967 14.4998C24.3118 14.1395 24.6207 12.6709 23.0831 12.5589H23.0751Z" fill="#C3BDC9"/>
<path fill-rule="evenodd" clip-rule="evenodd" d="M23.6768 18.8723C24.4067 19.2154 24.7511 18.3828 25.0943 18.0648C24.9227 17.6702 24.9742 17.3431 24.957 17C24.3209 17.3431 24.3381 18.5978 23.6768 18.8723Z" fill="#CECAD5"/>
<path fill-rule="evenodd" clip-rule="evenodd" d="M26.1686 12.9893C26.108 13.0156 26.1 13.2557 26.0222 13.2466C25.9707 14.9302 24.4411 15.8577 24.0807 18.2882C24.3038 18.0308 24.4674 17.0003 25.0349 16.0636C25.6366 15.0846 26.2201 14.5264 26.1606 12.9893H26.1686Z" fill="#CECAD5"/>
<path fill-rule="evenodd" clip-rule="evenodd" d="M25.3861 16.1665C24.7763 17.8066 25.9879 17.8238 26.0909 18.3567C24.8369 17.9359 24.7511 17.0254 25.3861 16.1665Z" fill="#DFDDE2"/>
<path fill-rule="evenodd" clip-rule="evenodd" d="M25.6092 11.46C27.6365 12.7741 25.8929 15.4276 25.1367 16.1492C25.4376 15.4802 27.2589 13.633 25.6092 11.46Z" fill="#DFDDE2"/>
<path fill-rule="evenodd" clip-rule="evenodd" d="M26.2968 10.7305C26.5027 11.1079 26.8379 11.7095 26.3483 11.5894C27.2075 13.496 26.2625 14.4842 25.79 15.549C24.7935 18.151 26.4432 17.1205 26.2545 18.9333C26.8128 18.2802 26.0828 17.3275 26.1172 16.9924C26.0737 16.5109 26.3746 15.4895 26.4776 14.8628C26.5977 15.2059 26.7785 15.4129 27.0016 15.5501C26.6148 14.1937 27.8264 11.5311 26.3059 10.7316H26.2968V10.7305Z" fill="#CECAD5"/>
<path fill-rule="evenodd" clip-rule="evenodd" d="M26.4947 15.2139C26.5897 15.3511 26.6583 15.5055 26.8208 15.6004C26.8986 16.1334 26.1595 17.8078 27.2761 17.9371C26.3654 18.3923 25.8666 17.0873 26.4947 15.223V15.2139Z" fill="#CECAD5"/>
<path fill-rule="evenodd" clip-rule="evenodd" d="M26.0051 10.2065C26.1938 10.2237 26.6492 10.5417 27.0794 10.2065C27.3711 10.6011 26.83 10.9362 26.2545 10.6446C26.108 10.5497 26.5805 10.5073 26.0051 10.2157V10.2065Z" fill="#C3BDC9"/>
<path fill-rule="evenodd" clip-rule="evenodd" d="M22.6197 10.353C22.7913 10.5417 22.9629 10.6447 23.1265 11.0999C23.2466 11.0999 23.3668 11.117 23.4869 11.1513C23.2901 10.8334 23.0407 10.5417 22.6197 10.353Z" fill="#DFDDE2"/>
<path fill-rule="evenodd" clip-rule="evenodd" d="M24.4674 9.80273C26.2282 10.2751 26.0657 9.45961 26.3837 9.33838C26.6927 9.83704 25.8334 10.4901 24.4674 9.80273Z" fill="#C3BDC9"/>
<path fill-rule="evenodd" clip-rule="evenodd" d="M22.3108 10.146C22.2078 10.1117 22.122 10.1197 22.0614 10.1288C22.2159 8.86616 23.6162 9.66448 24.3724 10.138C23.4183 9.68278 22.225 9.09833 22.3108 10.138V10.146Z" fill="#C3BEC9"/>
<path fill-rule="evenodd" clip-rule="evenodd" d="M22.3188 10.1458C22.241 8.71153 24.3118 10.3516 25.2659 10.4031C24.5955 10.4809 22.4046 9.02033 22.4218 10.1629L22.3188 10.1366V10.1458Z" fill="#F1EEF0"/>
<path fill-rule="evenodd" clip-rule="evenodd" d="M22.4481 10.1893L22.6197 10.2579C22.6368 10.1287 22.6883 9.99144 22.749 9.97429C23.1528 9.89651 22.7753 10.1035 22.8439 10.1722C22.9217 10.2236 23.0075 10.2842 23.0933 10.3357C23.0933 10.2751 23.0933 10.2065 23.1025 10.1207C23.1025 9.79472 24.0475 10.3185 24.7088 10.5324C24.7774 10.7303 24.3392 10.9705 23.996 10.9019C24.3049 11.1512 24.9673 11.0311 25.2591 10.6274C25.7659 10.6617 25.878 10.5839 25.989 10.4558C25.6023 10.378 25.4215 10.5679 24.4513 10.3014C23.5567 10.0429 22.4744 9.28691 22.4481 10.1893Z" fill="#C3BDC9"/>
<path fill-rule="evenodd" clip-rule="evenodd" d="M23.2558 10.0256C23.3679 10.0164 23.4617 10.0519 23.5647 10.0942C23.3668 10.403 23.6597 10.6958 23.8221 10.6443C23.8736 10.6958 23.9343 10.7473 24.1139 10.7907C23.8565 10.8422 22.9801 10.5757 23.2547 10.0176L23.2558 10.0256Z" fill="#B6B1BF"/>
<path fill-rule="evenodd" clip-rule="evenodd" d="M20.9448 11.7952C19.9654 9.91379 22.7925 9.57982 23.0842 11.1422C23.0842 11.1422 23.789 11.1685 24.4068 11.5024C25.6092 12.3785 24.8793 12.876 24.639 12.8417C24.0807 12.8509 23.9686 12.3088 23.1529 12.5158C22.9549 12.5935 22.9469 12.6873 22.8611 12.6873C22.3715 12.5672 23.265 11.5791 24.2352 12.2927C24.321 12.3534 24.5097 12.2321 24.3473 12.0434C23.7032 11.3903 22.5774 11.7518 22.3371 11.8112C22.0282 11.3046 21.3315 11.4166 20.9631 11.8112L20.9448 11.7952Z" fill="#F7D256"/>
<path fill-rule="evenodd" clip-rule="evenodd" d="M23.7535 10.2578C23.8736 10.3527 24.5006 10.4557 24.5178 10.5152C24.321 10.9875 23.6677 10.8423 23.7535 10.2578Z" fill="#AAA3B5"/>
<path fill-rule="evenodd" clip-rule="evenodd" d="M27.9294 23.0038C27.9294 23.0038 27.9122 23.021 27.9294 23.0381C28.0758 23.1159 28.2646 23.1582 28.4797 23.1754L28.9957 26.1902C28.9522 25.4091 28.9007 24.5924 28.8835 23.8456C28.8229 23.6992 28.7806 23.4339 28.7463 23.1674C28.8149 23.1674 28.8755 23.1502 28.9442 23.133C29.2702 25.0396 30.0608 25.4171 30.2153 25.5726C29.7942 25.1346 29.2268 24.5158 29.0471 23.0907C29.3309 22.9363 29.459 22.7476 29.546 22.7133C29.5723 22.6355 29.5551 22.4388 29.5197 22.353C29.2359 22.6195 28.9865 22.9375 28.411 22.894C28.3767 22.894 28.411 22.9455 28.411 22.9455C28.6341 23.2371 28.1879 23.0576 27.9465 23.0061L27.9294 23.0038Z" fill="#C3BDC9"/>
<path fill-rule="evenodd" clip-rule="evenodd" d="M29.0209 26.5081L29.0472 26.9633C29.3309 26.7826 29.5975 26.7232 29.975 25.8551C30.1295 27.4014 30.1467 28.9043 31.0493 29.2131C30.5848 28.1483 30.5848 26.9885 30.5505 25.8631C30.499 25.9317 30.4384 25.9832 30.3869 26.0346C30.0174 25.8196 29.9053 25.6481 29.7085 25.4502C29.5883 25.8368 29.5197 26.2405 29.03 26.507L29.0209 26.5081Z" fill="#CECAD5"/>
<path fill-rule="evenodd" clip-rule="evenodd" d="M29.6901 22.7715C29.8103 22.8149 29.9567 22.8321 30.102 22.8321L30.2564 25.0738L29.6901 22.7715Z" fill="#DFDDE2"/>
<path fill-rule="evenodd" clip-rule="evenodd" d="M30.7644 22.6081L30.8422 22.5566C31.023 22.9684 31.2713 23.3298 31.6328 23.6134L32.6041 30.1235L31.2038 23.5963C31.2038 24.7217 30.8857 25.4686 30.3789 25.9752L30.3274 25.5463C30.8605 24.8247 31.1774 23.9577 30.7736 22.6093L30.7644 22.6081Z" fill="#C3BDC9"/>
<path fill-rule="evenodd" clip-rule="evenodd" d="M32.2426 24.1118C32.389 24.1976 32.5606 24.2754 32.7494 24.3268C33.334 26.2941 33.5571 30.1667 32.7837 31.5666L32.7151 31.0337C31.3662 30.0032 31.023 27.1255 30.7564 25.5106L30.7999 25.4328C31.0573 26.9014 31.3674 29.7355 32.6899 30.8861C32.9302 30.1301 33.4462 27.957 32.5183 24.3417C32.4485 24.2662 32.3364 24.1884 32.2426 24.1118Z" fill="#C4BEC9"/>
<path fill-rule="evenodd" clip-rule="evenodd" d="M31.4177 22.0153C31.5379 21.9982 31.5985 22.0153 31.7873 21.9639L33.0755 23.8876L31.4177 22.0153Z" fill="#DFDDE2"/>
<path fill-rule="evenodd" clip-rule="evenodd" d="M32.8009 24.3428C32.9897 24.4034 33.2219 24.4629 33.4622 24.5143C33.4622 24.5749 35.3442 29.4015 36.6576 29.7709C34.9827 30.106 34.1406 27.1689 33.0492 25.4339C32.9714 25.0645 32.8855 24.7042 32.7997 24.3519L32.8009 24.3428Z" fill="#DFDDE2"/>
<path fill-rule="evenodd" clip-rule="evenodd" d="M32.5778 21.4399C32.5778 21.4399 32.5435 21.4914 32.5172 21.5086C33.2814 22.6935 33.2986 23.4152 33.1956 24.0591L33.5045 24.4628C33.6589 23.5616 33.4953 22.8913 33.2722 22.2554L37.0786 27.7785L33.7196 22.4018L34.4323 22.5048C33.8397 22.308 33.2391 22.2394 32.5778 21.4399Z" fill="#C3BDC9"/>
<path fill-rule="evenodd" clip-rule="evenodd" d="M34.8717 22.5143C35.0181 22.5143 35.1462 22.5143 35.2492 22.48C36.0055 23.7083 37.947 25.9329 37.7147 28.9729L37.4745 28.5086C35.6702 28.0968 34.4163 25.8288 33.7802 24.9104C34.8373 26.3023 36.0306 28.114 37.431 28.3976C37.5431 26.1296 35.8419 23.9142 34.8717 22.5143Z" fill="#C3BDC9"/>
<path fill-rule="evenodd" clip-rule="evenodd" d="M35.2664 22.4706L35.3351 22.5827C37.002 23.4668 38.8749 25.2281 40.035 23.9311C38.8325 24.4126 36.891 22.7199 35.6108 22.084L35.6714 22.3585C35.5341 22.4271 35.4049 22.4443 35.2767 22.4706H35.2664Z" fill="#DFDDE2"/>
<path fill-rule="evenodd" clip-rule="evenodd" d="M32.9039 20.3925C32.9039 20.444 32.9039 20.4783 32.8947 20.5126L34.9655 21.8004L33.0755 20.2896C33.0331 20.341 32.9634 20.3582 32.9039 20.3925Z" fill="#DFDDE2"/>
<path fill-rule="evenodd" clip-rule="evenodd" d="M35.4895 21.6035C35.5238 21.7408 35.5673 21.878 35.5925 22.0244C38.0751 23.175 39.5613 22.8914 40.2832 22.4362L39.8965 22.2989C38.8062 23.0206 36.1599 22.0496 35.4895 21.6035Z" fill="#C3BDC9"/>
<path fill-rule="evenodd" clip-rule="evenodd" d="M33.5137 19.6457C33.5137 19.6457 33.4965 19.7143 33.4874 19.7486C34.5445 20.3067 35.2744 21.3372 35.2481 22.0509L35.6085 22.3426C35.4712 21.1577 35.041 20.7105 34.612 20.2724L39.6551 22.2476L34.7584 19.9545C35.4117 19.8081 36.0902 19.7657 36.6576 19.0875L37.8086 19.0441C38.7971 18.8896 39.9137 18.3224 40.0247 17.7905L39.6551 17.834C39.1826 18.8816 37.3178 18.8473 36.3476 18.8816C35.9014 19.7234 34.4747 19.7829 33.5034 19.6548L33.5137 19.6457Z" fill="#C3BDC9"/>
<path fill-rule="evenodd" clip-rule="evenodd" d="M36.3315 19.4134C36.2023 19.5163 36.0741 19.585 35.9368 19.6456C36.4608 19.7577 36.9505 19.9029 37.4058 20.0745C38.7112 20.2117 40.0006 20.0139 40.0601 18.9067C39.5098 19.7908 37.947 19.6284 36.3395 19.4134H36.3315Z" fill="#DFDDE2"/>
<path fill-rule="evenodd" clip-rule="evenodd" d="M33.4965 18.6401C33.5308 18.7522 33.548 18.846 33.5652 18.9489L36.2366 18.8803C35.3271 18.8037 34.3901 18.7351 33.4965 18.6401Z" fill="#DFDDE2"/>
<path fill-rule="evenodd" clip-rule="evenodd" d="M34.7847 17.5664C35.3259 17.8157 35.8247 18.0902 36.2194 18.4082L35.867 18.0822C37.01 17.9873 38.1701 17.8935 39.4583 17.8249L35.3945 17.7986L34.7847 17.5664Z" fill="#C3BDC9"/>
<path fill-rule="evenodd" clip-rule="evenodd" d="M33.9267 17.6612C33.9175 17.7218 33.8832 17.7733 33.858 17.8328L34.7516 17.5754C36.0913 16.6135 36.1519 16.1412 36.3235 15.6174L38.36 14.3467L36.0398 15.4973C34.7859 15.5064 34.4587 15.686 34.0811 15.7889C35.1463 15.5567 35.851 15.5224 36.2377 15.6425L35.9883 15.7969C35.6703 16.8617 34.4678 17.4805 33.9175 17.6692L33.9267 17.6612Z" fill="#C3BDC9"/>
<path fill-rule="evenodd" clip-rule="evenodd" d="M33.9175 16.7853C33.9519 16.8539 33.961 16.9397 33.9782 17.0175C34.6143 16.6743 35.2149 16.2958 35.8076 15.9092C35.1806 16.218 34.5445 16.5359 33.9175 16.7933V16.7853Z" fill="#DFDDE2"/>
<path fill-rule="evenodd" clip-rule="evenodd" d="M35.6359 16.9222C36.3578 16.8616 37.0798 16.8444 37.8349 16.905C38.0065 16.8101 39.8278 16.2783 39.3897 15.3164C38.8657 16.3732 36.9242 16.7335 36.7697 16.8193C36.4608 16.8536 35.7126 16.8799 35.6359 16.9314V16.9222Z" fill="#DFDDE2"/>
<path fill-rule="evenodd" clip-rule="evenodd" d="M38.6346 14.2082L39.0385 14.0366C39.0819 14.1144 38.789 14.6634 38.2742 15.2387C37.5958 15.9855 37.1999 16.3126 35.9197 16.5437C35.946 16.5094 35.9712 16.4751 35.9883 16.4407C36.9848 16.1743 38.3509 15.2044 38.6346 14.2162V14.2082Z" fill="#DFDCE1"/>
<path fill-rule="evenodd" clip-rule="evenodd" d="M34.3637 15.2652L34.2436 15.4459C35.3865 14.6213 36.2972 14.1146 36.9837 13.8996C37.6713 13.1779 37.8257 12.4562 37.542 12.0444C37.5855 13.3837 35.454 14.3891 34.3546 15.2652H34.3637Z" fill="#DFDDE2"/>
<path fill-rule="evenodd" clip-rule="evenodd" d="M33.6258 15.7797L33.5823 16.1228C34.4323 15.5041 34.8877 14.3798 34.7676 13.4351L34.4667 13.7439L33.1441 14.8178C33.2127 14.8784 33.2905 14.9471 33.342 15.0065L34.4678 13.7782C34.5445 14.7927 33.8569 15.583 33.6258 15.7797Z" fill="#C3BEC9"/>
<path fill-rule="evenodd" clip-rule="evenodd" d="M34.7767 14.1913L34.6989 14.4749C35.2492 14.1318 35.6268 13.7704 35.97 13.401C36.915 12.3018 37.0351 11.348 37.1209 10.8848L36.7171 11.2107C36.7857 12.6107 35.2138 13.95 34.7927 14.1821L34.7767 14.1913Z" fill="#DFDDE2"/>
<path fill-rule="evenodd" clip-rule="evenodd" d="M34.3123 13.4011C34.4667 13.4011 34.6303 13.392 34.7848 13.4011L36.6405 11.2715L34.3123 13.4011Z" fill="#C3BDC9"/>
<path fill-rule="evenodd" clip-rule="evenodd" d="M32.9462 12.1987L32.714 12.4652C32.8089 12.989 32.8089 13.6936 32.0355 14.5525L32.0618 14.596L32.1133 14.5788C32.7323 13.8148 33.3764 13.617 34.0205 13.4282C33.643 13.5232 33.2643 13.5826 32.8432 13.8057C33.135 12.9296 33.0069 12.4835 32.9462 12.2079V12.1987Z" fill="#C3BDC9"/>
<path fill-rule="evenodd" clip-rule="evenodd" d="M33.0331 12.8944V13.0659C33.6944 12.6542 34.3648 12.1647 34.9746 11.4853C35.327 11.0301 35.7824 10.3862 35.8419 9.51807L35.4895 9.79256C35.4208 11.244 33.548 12.4895 33.032 12.9012L33.0331 12.8944Z" fill="#DFDDE2"/>
<path fill-rule="evenodd" clip-rule="evenodd" d="M31.5287 12.7057C32.0699 12.4735 32.5938 12.2505 32.9554 12.1819L35.2927 10.0088C34.6658 10.464 33.3512 11.5974 32.7323 12.0618C32.5172 12.2253 32.3032 12.2162 31.5207 12.7057H31.5287Z" fill="#DFDDE2"/>
<path fill-rule="evenodd" clip-rule="evenodd" d="M35.4208 9.80273C29.5013 10.8332 26.219 17.9701 30.1798 17.3262L29.9567 17.2747C29.1661 17.3433 28.9602 16.656 29.0368 16.2179C29.1055 15.7455 29.5608 15.4791 29.6901 15.4367C29.6558 15.0158 29.6386 14.595 30.0505 14.2518C30.2141 13.8573 30.4029 13.6502 30.5916 13.4444C31.2106 11.1947 34.3545 10.0692 35.4197 9.81188L35.4208 9.80273Z" fill="#F1EEF0"/>
<path fill-rule="evenodd" clip-rule="evenodd" d="M32.6636 12.4482C31.9245 12.5603 30.9109 13.3758 30.7564 13.7189C30.7393 13.7532 30.7564 13.8047 30.499 13.942V13.9854C30.7656 13.8733 31.4532 13.9854 30.8079 14.1398C31.2289 14.1307 31.5985 14.2942 31.8479 14.8615C33.2139 14.6556 33.5571 15.6518 33.2139 16.3129C34.1154 17.0941 33.5491 18.0994 33.0503 18.2881C33.3512 18.9583 33.5057 19.8424 32.5858 20.1867C32.5858 20.7792 32.5 21.7067 31.0905 21.6987C30.9189 22.1025 30.4201 22.7898 29.57 22.4204C29.57 22.4204 29.57 22.4467 29.57 22.4719C29.5528 22.5153 29.9224 22.6091 29.9304 22.592C30.2221 22.6263 30.2565 22.815 29.9041 22.7292C29.7748 22.6949 29.6638 22.6606 29.5689 22.6171C29.5689 22.6171 29.5689 22.6778 29.5517 22.7121C30.4715 23.03 31.0035 22.4719 31.2873 21.9995C32.3867 21.9389 32.8341 21.3384 32.8936 20.3937C33.7871 19.8356 33.667 18.9847 33.3924 18.4014C34.191 17.7997 34.1315 16.7521 33.5297 16.2626C33.9415 14.8798 32.7139 14.5104 32.0607 14.6053C31.8456 14.2359 31.7003 14.1844 31.5447 14.0815L32.7048 12.51L31.2953 13.9614C31.158 13.9099 30.9692 13.8928 30.745 13.9008C31.0459 13.1539 32.214 12.5786 32.6785 12.4494H32.6636V12.4482Z" fill="#C3BDC9"/>
<path fill-rule="evenodd" clip-rule="evenodd" d="M21.8898 10.7989C22.0614 11.0653 22.3623 10.7211 22.8519 11.2449L22.9126 11.2186C22.8005 10.7725 22.5007 10.5061 22.0534 10.4546C22.2421 10.6181 22.1049 10.6261 22.0968 10.7382C22.0957 10.8332 22.0957 10.9453 21.8898 10.7989Z" fill="#E0A231"/>
<path fill-rule="evenodd" clip-rule="evenodd" d="M21.1084 11.6065C21.3749 11.4601 21.9584 11.2463 22.328 11.7609C23.4961 11.4178 24.321 11.7346 24.4331 12.199C24.5017 12.0697 24.1757 11.3663 22.8439 11.4864C21.7102 10.6881 21.066 11.4087 21.1004 11.6065H21.1084Z" fill="#E0A231"/>
<path fill-rule="evenodd" clip-rule="evenodd" d="M22.8863 12.6119C22.6803 12.6119 23.3153 11.8559 24.3473 12.5685C24.7168 12.7149 24.8976 12.525 24.8289 12.2162C24.8026 11.9932 24.6825 11.8639 24.6058 11.6924C25.1298 12.079 25.1905 12.5685 24.8381 12.7572C24.2878 13.0317 23.9011 12.0618 22.8874 12.6028L22.8863 12.6119Z" fill="#DFA231"/>
<path fill-rule="evenodd" clip-rule="evenodd" d="M22.027 23.244L22.2593 23.57L22.1987 23.5265C21.5454 23.8353 21.2102 23.7152 20.8933 23.57L20.8589 23.5436C20.1885 23.6729 19.7675 23.5002 19.4071 23.2348C19.4334 23.4327 19.5707 23.5871 19.7503 23.7244L19.0456 26.7907L19.3808 23.9131C18.9769 25.0385 18.4529 25.5623 17.731 25.8803L17.7825 25.5623C18.4438 25.2272 19.0112 24.5833 19.2778 23.1914C19.0112 23.2257 18.7447 23.26 18.4792 23.1914L17.818 25.4674L18.136 23.1136C17.8523 22.9249 17.612 22.6847 17.3718 22.4434V22.3999C17.4404 22.5029 17.5182 22.1941 17.5091 22.0991C18.0079 22.9066 18.7035 23.053 19.3911 22.8208C19.3911 22.8986 19.3911 22.9672 19.3568 23.0782H19.3911C19.3911 23.0782 19.4345 23.0004 19.4517 22.9409C19.4345 22.9237 19.4254 22.8974 19.4174 22.8723V22.846C19.8041 23.5242 20.7399 23.2063 20.8612 23.2669C20.8441 23.3012 20.8612 23.4041 20.8875 23.4899L20.9047 23.5162C20.9047 23.5162 20.9219 23.4213 20.9047 23.3526L20.8704 23.292L20.8967 23.3092C21.2147 23.5494 21.6529 23.5322 22.0225 23.2314L22.027 23.244Z" fill="#C3BDC9"/>
<path fill-rule="evenodd" clip-rule="evenodd" d="M19.8533 23.7847C20.0684 23.8876 20.2915 23.9654 20.5409 24.0168C20.4288 25.4602 19.6989 27.1003 18.9255 27.5899L18.9426 27.1861C18.7538 26.8682 18.6074 26.3706 18.5651 25.339L18.6257 25.2784C18.6429 26.0001 18.7207 26.652 18.9609 27.1598C19.3305 26.8853 20.121 25.9658 20.2492 24.2056C20.2492 24.0935 20.2228 24.034 20.1634 23.9997C20.0169 23.9219 19.9311 23.8533 19.8453 23.7938L19.8533 23.7847Z" fill="#C1C1C9"/>
<path fill-rule="evenodd" clip-rule="evenodd" d="M17.0698 29.8739C17.9027 30.0969 18.453 28.4911 18.7619 27.4171C18.6154 27.1255 18.4095 26.8247 18.3923 25.5186L18.3237 25.5872C18.2379 27.2707 18.2207 29.1259 17.0606 29.8727L17.0698 29.8739Z" fill="#C3BDC9"/>
<path fill-rule="evenodd" clip-rule="evenodd" d="M17.4656 22.5566L17.5171 22.6081C17.4565 22.9261 17.0274 24.0767 17.5606 25.2021C17.2597 24.764 17.0194 24.0686 17.4748 22.5566H17.4656Z" fill="#DFDDE3"/>
<path fill-rule="evenodd" clip-rule="evenodd" d="M17.0183 23.2607L16.8547 23.5181L15.0939 30.6813L16.9668 24.7213C17.0617 25.0644 17.1727 25.4258 17.6624 25.992C16.9748 28.4224 15.8845 30.5955 14.9566 31.1708L15.0424 30.8791C14.6477 29.6771 14.9646 27.1426 15.6442 24.592C15.206 25.992 14.3125 29.0411 14.88 31.2657L14.6992 31.8158C16.5469 30.5532 17.6372 27.3839 18.0502 25.7689C17.9473 25.8467 17.8351 25.889 17.7242 25.9325C17.1395 25.4087 16.865 24.576 17.0194 23.2699L17.0183 23.2607Z" fill="#C3BDC9"/>
<path fill-rule="evenodd" clip-rule="evenodd" d="M15.9097 21.2593C15.9531 21.4823 16.2106 21.7408 16.3387 21.9638C16.4073 22.0759 16.4851 22.1274 16.5789 21.9901L16.6567 21.8609C16.8455 22.0759 17.1121 22.196 17.4988 22.1274L17.0343 23.2013C16.4931 24.249 15.7804 24.472 15.0665 24.7213L15.2896 24.3096C16.2174 24.2238 16.8787 23.3043 17.2231 22.4625C16.9908 22.411 16.7677 22.3161 16.5103 22.1537L15.4188 24.0523L16.1408 22.1285C16.2883 21.8266 15.9016 21.5864 15.9097 21.2593Z" fill="#C3BDC9"/>
<path fill-rule="evenodd" clip-rule="evenodd" d="M15.4635 24.5925C15.3342 24.6439 15.1969 24.6954 15.0516 24.7297C13.8572 27.4003 13.1959 29.7804 11.0656 30.5273C12.99 30.8967 14.2874 27.8052 14.7599 26.8776C15.1031 26.0359 15.3102 25.2547 15.4646 24.5845V24.5925H15.4635Z" fill="#CECAD5"/>
<path fill-rule="evenodd" clip-rule="evenodd" d="M15.73 21.3373C15.5149 21.5946 14.7759 22.6251 15.2404 24.343L15.2838 24.2915C14.9486 23.1489 15.301 21.8783 15.73 21.3281V21.3373Z" fill="#E0DEE4"/>
<path fill-rule="evenodd" clip-rule="evenodd" d="M14.9394 22.857C14.8788 23.3031 14.896 23.6554 14.9223 24.0076C13.4784 26.5673 11.0644 28.9291 9.67322 29.0229C11.4511 26.6439 13.221 24.1872 15.0001 21.7659C15.1122 21.7145 15.2323 21.6367 15.3433 21.5601C15.1545 21.8346 15.0687 22.0587 15.0344 22.2646L10.1549 28.5254C11.7875 28.3881 14.4589 24.5235 14.8628 23.4838C14.8628 23.175 14.9063 23.0023 14.9486 22.857H14.9394Z" fill="#C3BDC9"/>
<path fill-rule="evenodd" clip-rule="evenodd" d="M9.96501 28.6114L10.0771 28.4742C9.93984 26.0609 12.6719 23.1924 13.411 22.29C13.2909 22.5474 9.80255 25.6137 9.96615 28.6194V28.6114H9.96501Z" fill="#DFDCE1"/>
<path fill-rule="evenodd" clip-rule="evenodd" d="M7.97998 24.2914C8.39185 24.9353 9.07944 25.331 11.6662 23.7675C12.1822 23.2003 12.697 22.617 13.213 22.1274H13.0837C12.2165 22.4797 9.96497 24.8324 7.97998 24.3005V24.2914Z" fill="#DFDDE2"/>
<path fill-rule="evenodd" clip-rule="evenodd" d="M14.6992 19.7563C14.364 19.8936 13.0929 20.3579 12.9636 21.7922L12.689 21.9466C14.4326 22.5219 15.7563 21.2077 16.0137 20.9676C15.7392 20.796 15.4634 20.6496 15.2323 20.2379L15.0001 20.3499C14.4418 20.8143 13.7633 21.2695 13.11 21.7064L15.1374 20.6759C15.2575 20.8051 15.3868 20.9424 15.6705 21.114C14.4418 21.9557 13.4796 21.9123 13.0162 21.7922C13.0837 20.9596 13.5814 20.255 14.6992 19.7563Z" fill="#C3BDC9"/>
<path fill-rule="evenodd" clip-rule="evenodd" d="M12.7394 21.4663C12.7051 21.6379 12.6536 21.8266 12.6616 21.9558C12.1113 22.1708 11.4935 22.3504 10.8059 22.4625C10.7624 22.4716 10.5828 22.5403 10.5141 22.411C10.4363 22.3596 10.3425 22.3504 10.2567 22.3596C10.2396 22.3161 10.1537 22.3333 10.1446 22.2989C11.8287 22.0073 12.5929 21.6036 12.7394 21.4743V21.4663Z" fill="#CECAD5"/>
<path fill-rule="evenodd" clip-rule="evenodd" d="M10.8585 20.229C10.4123 20.444 8.56464 21.4231 8.24658 22.3678C9.14812 22.6423 9.81855 22.4021 10.2316 22.3678C10.2144 22.3415 10.1366 22.3506 10.1286 22.3072C9.45817 22.4021 8.65044 22.4536 8.42735 22.3163L8.59095 22.2305C8.64243 21.4322 10.5496 20.436 10.8505 20.229H10.8585Z" fill="#DFDDE1"/>
<path fill-rule="evenodd" clip-rule="evenodd" d="M8.7019 22.196C11.7086 21.0797 13.1696 20.1865 14.7758 19.6455V19.697C14.6466 19.7747 13.5906 20.0229 13.1776 20.6245L8.7019 22.196Z" fill="#C3BDC9"/>
<path fill-rule="evenodd" clip-rule="evenodd" d="M14.261 19.8081C14.0551 19.8939 13.8492 19.9625 13.6341 20.0826C12.6547 19.9362 12.4911 19.696 12.0701 19.4902L12.1559 19.4558C12.3104 19.5679 12.5083 19.6537 12.6891 19.7475C12.9808 19.8424 13.0494 19.7303 12.7577 19.6274C12.4145 19.5153 12.1994 19.3701 12.0106 19.2237C12.3458 18.5706 13.1444 18.2526 13.2474 18.2012C12.8092 18.4848 12.2932 18.7422 12.1651 19.1802C12.8527 19.0773 13.5826 18.9572 14.4761 18.7593C14.5448 18.8794 14.6054 18.9995 14.7335 19.163L14.7072 19.1894L14.5699 19.0258L12.1731 19.2065C12.8344 19.6617 13.5471 19.7052 14.2519 19.7818L14.261 19.8081Z" fill="#C3BDC9"/>
<path fill-rule="evenodd" clip-rule="evenodd" d="M8.0921 18.8896C8.36668 19.8172 10.6949 19.577 12.0701 19.4821L12.1387 19.4558C12.0266 19.378 11.9328 19.3014 11.8722 19.2236C11.3047 19.1047 8.7019 19.6537 8.0921 18.8896Z" fill="#DFDDE2"/>
<path fill-rule="evenodd" clip-rule="evenodd" d="M12.4739 18.3828L12.5002 18.4091C12.3366 18.5464 12.1742 18.6665 12.0106 18.8643C9.86314 18.8643 8.50511 18.0145 8.11841 17.5159C8.65155 17.087 9.32084 16.9314 10.0347 16.8628C9.42495 17.0435 8.71219 17.1464 8.38498 17.533H8.22938C9.22588 18.6493 11.8893 19.148 12.4648 18.392L12.4739 18.3828Z" fill="#DFDDE2"/>
<path fill-rule="evenodd" clip-rule="evenodd" d="M8.52118 17.5664C9.94785 17.7643 11.3482 17.9438 12.8172 18.176C13.0151 18.0045 13.3755 17.8844 13.9258 17.8501C13.7371 17.8501 13.5826 17.8237 13.2817 17.8672C11.6491 17.8935 10.1023 17.6876 8.52118 17.5664Z" fill="#C3BDC9"/>
<path fill-rule="evenodd" clip-rule="evenodd" d="M14.6466 17.3432C14.5093 17.4804 14.4406 17.6863 14.3892 17.9105C12.8172 17.3947 12.5598 16.4156 12.5071 16.3127C13.4522 15.6596 14.0196 15.901 14.801 15.8838C13.1341 15.806 12.6959 16.2441 12.6273 16.3299C13.2542 16.5014 13.6924 16.6558 15.0333 16.88C14.904 16.9749 14.8273 17.0515 14.7667 17.1373C14.2507 16.9223 13.2886 16.6307 12.6101 16.3642C12.7222 16.8194 13.4178 17.4976 14.0105 17.6783C14.1741 17.7218 14.3537 17.8076 14.4223 17.5925C14.4487 17.5068 14.5768 17.3695 14.6374 17.3432H14.6466Z" fill="#C3BDC9"/>
<path fill-rule="evenodd" clip-rule="evenodd" d="M8.6676 15.2822C8.96849 15.583 10.1114 16.5792 12.2074 16.3299C12.2852 16.5358 12.371 16.6135 12.4477 16.6902C11.8893 16.6044 11.331 16.5438 10.7636 16.5872C9.84372 16.3127 9.00282 15.9776 8.65845 15.2822H8.6676Z" fill="#DFDDE2"/>
<path fill-rule="evenodd" clip-rule="evenodd" d="M12.9465 15.7112C12.9465 15.7112 13.0071 15.7547 13.0494 15.7627C12.7062 15.8999 12.4396 16.0463 12.2337 16.2007C11.1766 15.8748 9.68239 15.0925 9.14124 14.1134C9.79451 13.8218 10.902 13.959 11.5472 14.1134C10.8345 14.1134 9.97527 13.959 9.55425 14.2427L9.22819 14.1306C9.35747 14.5515 11.6079 16.5096 12.9396 15.7112H12.9465Z" fill="#DFDDE2"/>
<path fill-rule="evenodd" clip-rule="evenodd" d="M9.66406 14.3032C11.0038 14.7756 12.284 15.2399 13.3503 15.686C13.6855 15.6082 14.0116 15.6254 14.3388 15.686C14.261 15.6082 14.1843 15.5487 14.1237 15.4458H14.0974L14.2347 15.6345C12.4133 15.0158 11.0736 14.6726 9.67322 14.3124L9.66406 14.3032Z" fill="#C3BDC9"/>
<path fill-rule="evenodd" clip-rule="evenodd" d="M13.8915 14.8351C13.7885 14.6464 13.6936 14.4405 13.6856 14.1569C13.1787 14.397 10.8757 13.3929 10.3265 12.1382C10.3609 13.2373 12.3287 14.1054 13.8915 14.8259V14.8351Z" fill="#DFDDE2"/>
<path fill-rule="evenodd" clip-rule="evenodd" d="M15.2232 15.5225C15.1545 15.6003 15.0939 15.694 15.0081 15.7375C14.9646 15.7638 14.9223 15.7638 14.8788 15.7375C14.0631 15.2137 13.8995 14.3113 13.9246 14.1317C14.5516 14.0288 15.42 14.0368 16.6224 14.7848C16.3558 14.7242 15.4714 14.0722 14.0448 14.1923C14.0185 14.6818 14.388 15.6186 15.2129 15.5236L15.2232 15.5225Z" fill="#C3BDC9"/>
<path fill-rule="evenodd" clip-rule="evenodd" d="M14.1569 14.2769L15.6008 15.3245C15.7895 15.3337 15.9703 15.3245 16.1591 15.4194C16.1682 15.3851 16.1854 15.3337 16.2197 15.265C15.4291 14.9391 14.8445 14.604 14.1569 14.2769Z" fill="#C3BDC9"/>
<path fill-rule="evenodd" clip-rule="evenodd" d="M10.91 10.9189L11.2967 11.1511C11.2452 12.0181 12.792 13.7188 14.5104 13.848C14.2267 13.8743 13.9178 13.8652 13.6947 13.9681C12.8789 13.4615 12.3378 12.9285 11.8824 12.4561C11.7875 12.4733 11.7108 12.2331 11.5564 12.3097C11.1182 11.7424 10.9466 11.3044 10.9203 10.927L10.91 10.9189Z" fill="#DFDDE2"/>
<path fill-rule="evenodd" clip-rule="evenodd" d="M13.419 11.5972C12.8435 11.3741 12.3195 11.1157 11.323 11.1591C12.8778 12.2846 13.7199 12.9879 14.8628 13.8732C15.3868 13.951 15.8856 14.182 16.3924 14.3799C16.3238 14.2426 16.2723 14.1054 16.246 13.959C16.246 14.0791 16.246 14.1911 16.3238 14.3112C15.6453 14.1134 12.8618 12.1382 11.4958 11.2541C12.0094 11.0905 12.7394 11.3913 13.419 11.5972Z" fill="#C5BECB"/>
<path fill-rule="evenodd" clip-rule="evenodd" d="M14.2095 11.6488C13.5826 11.1078 12.887 10.489 12.7314 9.62207C13.4613 9.70785 14.888 10.1974 15.9966 10.9957C14.9658 10.4032 13.9945 9.96519 13.2039 9.9732C13.1352 10.6949 13.7965 11.1672 14.2175 11.6476H14.2095V11.6488Z" fill="#DFDDE2"/>
<path fill-rule="evenodd" clip-rule="evenodd" d="M13.2462 10.0005L13.2119 10.0268C14.269 10.808 15.0333 11.5468 15.8662 12.3028C16.0984 12.5007 16.0721 12.7146 16.0984 12.9296C16.1842 12.8266 16.0721 12.4915 16.2529 12.4481C16.4245 12.4138 17.0858 12.7569 17.1293 12.7054C15.5744 12.018 14.5345 10.9109 13.2542 10.0005H13.2462Z" fill="#C3BDC9"/>
<path fill-rule="evenodd" clip-rule="evenodd" d="M16.5629 14.1662C16.4165 13.926 16.1853 13.1871 16.3306 12.6885C18.3328 13.1174 18.676 14.698 18.7103 15.016C18.4186 13.8734 17.3271 12.8349 16.5709 12.9721C17.0263 13.393 17.5937 14.26 17.9369 14.6294C17.7733 14.6294 17.6017 14.6465 17.4988 14.69C17.215 14.6557 17.0869 14.7163 16.9404 14.7586C16.786 14.5779 16.7254 14.4407 16.6315 14.2943C16.8375 14.5779 17.1304 14.5345 17.4301 14.4487C17.1212 13.8905 16.8112 13.4868 16.5023 13.0053C16.3478 13.1174 16.5023 13.7178 16.5457 14.165L16.5629 14.1662Z" fill="#E0DEE4"/>
<path fill-rule="evenodd" clip-rule="evenodd" d="M17.3707 12.0352C20.7812 14.302 21.0386 18.0214 18.6246 17.4118C21.5203 17.0687 18.1269 12.766 17.3707 12.0352Z" fill="#DFDDE2"/>
<path fill-rule="evenodd" clip-rule="evenodd" d="M17.5342 14.6978C17.818 14.5777 18.5651 14.5949 18.5994 15.7546L18.35 15.9433C18.35 15.6254 18.4015 14.9128 17.5342 14.707V14.6978Z" fill="#C3BDC9"/>
<path fill-rule="evenodd" clip-rule="evenodd" d="M18.35 15.9607L18.6074 15.772C19.8533 16.2443 19.2435 17.5836 18.3751 17.3698C19.4071 17.2668 19.1829 15.9435 18.35 15.9607Z" fill="#C3BDC9"/>
<path fill-rule="evenodd" clip-rule="evenodd" d="M22.3531 7.26044C22.5248 7.55209 22.0523 8.43733 22.86 8.30809C23.1346 8.47965 23.376 8.38586 23.5041 8.38586C24.0372 8.19715 24.0201 7.82773 24.0544 7.7328C23.5899 7.07973 24.115 6.95163 24.1665 6.91732C24.4503 6.95163 24.6047 7.48461 24.218 7.64702C24.2523 7.67332 24.2958 7.66417 24.3553 7.63787C24.3553 8.48766 24.9571 8.54827 25.369 8.41103C26.1938 8.63405 25.79 7.68133 26.1847 6.97679C25.7465 7.75796 26.0302 8.46249 25.3861 8.36871C25.5497 7.96497 25.1115 7.65617 25.3346 7.21812C24.9994 7.50176 25.5577 8.0336 25.3346 8.30924C25.1115 8.5071 24.8884 8.34355 24.8793 8.25777C24.7843 7.96612 25.4468 7.62185 25.0509 7.09002C25.1882 7.37367 25.1367 7.50176 25.0681 7.69162C24.9994 7.87233 24.7157 8.03474 24.845 8.40416C24.5532 8.34355 24.4068 8.00958 24.4846 7.73394C24.5624 7.46745 24.6997 7.0214 24.1928 6.875C23.5567 7.06372 23.8839 7.57039 23.9606 7.65617C24.115 7.82773 23.8313 8.3344 23.4709 8.3344C23.6345 8.08506 23.4366 8.0336 23.1963 7.62986C23.1792 7.84488 23.678 8.12853 23.3943 8.30009C23.2478 8.42018 23.0419 8.35155 22.9561 8.26577C22.7925 8.08506 23.1792 7.87119 23.1105 7.50977C23.0076 8.02559 22.8531 7.99928 22.8783 8.23947C22.6895 8.29094 22.4916 8.35956 22.4321 7.99928C22.4309 7.50977 22.4309 7.20897 22.3531 7.26044Z" fill="#E0A231"/>
<path fill-rule="evenodd" clip-rule="evenodd" d="M25.6618 9.26176V9.31323C24.6825 9.37384 23.6768 9.18399 22.7147 9.16683V9.12451C23.694 9.14967 24.4674 9.32123 25.6618 9.26176Z" fill="#E0A231"/>
<path fill-rule="evenodd" clip-rule="evenodd" d="M24.1402 9.42529V9.46875C24.7077 9.55453 25.274 9.64946 25.7465 9.598V9.55339C25.1802 9.62201 24.6642 9.51107 24.1402 9.42529Z" fill="#E0A231"/>
<path fill-rule="evenodd" clip-rule="evenodd" d="M22.7913 8.61773C22.6368 8.6692 22.7055 8.90137 22.7913 8.89222C22.9721 8.90137 23.1517 8.92653 23.3324 8.89222C23.4354 8.84075 23.4697 8.66005 23.3496 8.59142C23.1608 8.56512 22.9721 8.56512 22.7913 8.60858V8.61773ZM22.757 8.58342C23.0659 8.5228 23.3496 8.56626 23.5132 8.59257C23.6596 8.62688 23.6596 8.88422 23.5132 8.93568C23.3496 8.95284 22.9972 8.94483 22.757 8.92653C22.6025 8.79729 22.6803 8.63488 22.757 8.58342Z" fill="#E1A132"/>
<path fill-rule="evenodd" clip-rule="evenodd" d="M23.8748 8.86576C24.2786 8.91723 24.6219 8.95154 24.5361 8.63359C24.4239 8.63473 23.6334 8.46317 23.8748 8.86576ZM23.8656 8.90923C23.8141 8.84861 23.7363 8.72852 23.8828 8.57411C24.1059 8.55696 24.3381 8.57411 24.5784 8.60842C24.7935 8.6942 24.7763 8.89207 24.5955 8.9687C24.218 8.96984 24.0121 8.94354 23.8656 8.90923Z" fill="#E1A132"/>
<path fill-rule="evenodd" clip-rule="evenodd" d="M24.9742 8.91877C25.3781 9.00455 25.7133 9.08232 25.6527 8.75522C25.5405 8.75522 24.7763 8.49788 24.9742 8.91877ZM24.957 8.96109C24.9056 8.90047 24.8449 8.77237 25.0005 8.62598C25.576 8.65228 25.4822 8.66029 25.6881 8.71176C25.8941 8.81469 25.8597 9.01256 25.679 9.07203C25.1801 9.08118 25.0943 9.00341 24.957 8.95194V8.96109Z" fill="#E1A132"/>
<path fill-rule="evenodd" clip-rule="evenodd" d="M17.6624 15.2388L17.0262 17.1202C17.207 17.1202 17.3523 17.1294 17.6624 17.0687C17.9552 16.4763 18.0147 15.6345 17.6624 15.2388Z" fill="#C3BDC9"/>
<path fill-rule="evenodd" clip-rule="evenodd" d="M18.1784 18.9066L17.0274 17.1201C17.0274 17.1201 16.7357 17.859 16.7014 18.0991C16.8467 18.4937 17.5251 18.8975 18.1784 18.9066Z" fill="white"/>
<path fill-rule="evenodd" clip-rule="evenodd" d="M17.9896 17.532C18.3934 17.3856 18.4712 17.1454 18.4792 16.999L17.6635 17.0676C17.7745 17.2152 17.8946 17.3604 17.9896 17.532Z" fill="#C3BDC9"/>
<path fill-rule="evenodd" clip-rule="evenodd" d="M16.6407 16.1755C16.4771 16.0634 15.9451 16.0291 15.833 16.124L16.5115 16.7508C16.5378 16.5701 16.5801 16.3562 16.6407 16.1755Z" fill="#C3BDC9"/>
<path fill-rule="evenodd" clip-rule="evenodd" d="M15.1111 18.1087L17.0103 17.1297C17.0538 17.1125 16.778 17.8765 16.6922 18.1087C16.4691 18.2288 15.5241 18.4518 15.1031 18.1087H15.1111Z" fill="#C3BDC9"/>
<path d="M81.2151 18.7241C82.874 18.7241 84.1325 19.1473 84.9791 20.0051C85.8258 20.8629 86.2491 22.224 86.2491 24.0882V33.6269H82.2448V25.0833C82.2448 24.0425 82.0617 23.2419 81.7071 22.7158C81.3524 22.1896 80.7918 21.9151 80.0482 21.9151C78.9956 21.9151 78.2405 22.2926 77.7943 23.0474C77.3481 23.8023 77.1307 24.8774 77.1307 26.2842V33.6269H73.1379V25.0833C73.1379 24.3856 73.0578 23.8023 72.8976 23.3334C72.7374 22.8644 72.4972 22.5099 72.1769 22.2697C71.8565 22.0295 71.4446 21.9151 70.9298 21.9151C70.1861 21.9151 69.6027 22.0981 69.1793 22.4756C68.756 22.8416 68.4586 23.3906 68.2755 24.1111C68.0925 24.8317 68.0124 25.7123 68.0124 26.7417V33.6269H64.0195V18.9986H67.0742L67.612 20.8743H67.8293C68.1268 20.3711 68.5043 19.9594 68.9505 19.6391C69.3967 19.3303 69.9001 19.0901 70.4378 18.9414C70.9756 18.7928 71.5247 18.7241 72.0853 18.7241C73.1608 18.7241 74.0646 18.8957 74.8197 19.2503C75.5633 19.6048 76.1354 20.1424 76.5358 20.8743H76.8905C77.3252 20.1195 77.943 19.5819 78.7439 19.2388C79.5448 18.8957 80.3685 18.7241 81.2151 18.7241ZM107.475 24.0539C107.475 22.0638 107.155 20.3368 106.503 18.8614C105.851 17.386 104.855 16.2422 103.517 15.4302C102.178 14.6182 100.485 14.2178 98.3912 14.2178C96.2976 14.2178 94.5929 14.6182 93.2314 15.4302C91.87 16.2422 90.8746 17.386 90.2225 18.85C89.5704 20.3139 89.25 22.041 89.25 24.0196C89.25 25.495 89.4331 26.8446 89.7992 28.057C90.1653 29.2693 90.7144 30.2987 91.4695 31.1793C92.2246 32.06 93.1628 32.7234 94.3069 33.1923C95.451 33.6612 96.801 33.89 98.3684 33.89C99.9358 33.89 101.286 33.6612 102.43 33.1923C103.574 32.7234 104.524 32.0486 105.267 31.1793C106.011 30.3101 106.571 29.2693 106.938 28.057C107.304 26.8446 107.487 25.5065 107.487 24.031L107.475 24.0539ZM93.5289 24.031C93.5289 22.6814 93.7005 21.5263 94.0323 20.5655C94.3641 19.6048 94.8903 18.8614 95.6111 18.3467C96.3319 17.832 97.2586 17.569 98.4027 17.569C100.13 17.569 101.354 18.1408 102.11 19.296C102.853 20.4512 103.231 22.0295 103.231 24.031C103.231 25.3578 103.071 26.5129 102.739 27.4737C102.407 28.4344 101.892 29.1778 101.171 29.6925C100.451 30.2072 99.501 30.4702 98.3684 30.4702C97.2357 30.4702 96.3204 30.2072 95.5997 29.6925C94.8789 29.1778 94.3526 28.4344 94.0208 27.4737C93.6891 26.5129 93.5174 25.3692 93.5174 24.031H93.5289ZM114.481 13.2686H110.488V33.6384H113.542L114.206 32.0257H114.481C114.869 32.5061 115.373 32.9407 115.991 33.3181C116.608 33.6955 117.421 33.89 118.531 33.89C119.64 33.89 120.624 33.604 121.471 33.0322C122.317 32.4603 122.981 31.614 123.45 30.4817C123.919 29.3494 124.159 27.954 124.159 26.2842C124.159 23.8023 123.645 21.9266 122.626 20.6456C121.608 19.3646 120.27 18.7241 118.634 18.7241C117.581 18.7241 116.723 18.9414 116.059 19.3646C115.396 19.7878 114.881 20.291 114.492 20.8972H114.332C114.378 20.5999 114.412 20.1767 114.446 19.6391C114.48 19.1016 114.492 18.5526 114.492 18.0036V13.2686H114.481ZM117.364 21.9037C118.21 21.9037 118.874 22.2697 119.366 22.9902C119.858 23.7222 120.098 24.7973 120.098 26.227C120.098 27.6567 119.846 28.7546 119.366 29.5095C118.885 30.2758 118.233 30.6532 117.409 30.6532C116.3 30.6532 115.544 30.2758 115.121 29.5209C114.698 28.7661 114.492 27.6795 114.492 26.2613V25.8267C114.515 24.946 114.618 24.214 114.801 23.6422C114.984 23.0703 115.281 22.6357 115.693 22.3498C116.105 22.0638 116.654 21.9151 117.352 21.9151L117.364 21.9037ZM125.171 18.9986L130.983 33.524L130.743 34.2445C130.582 34.7135 130.376 35.1481 130.102 35.5484C129.827 35.9487 129.495 36.2575 129.095 36.4977C128.695 36.7379 128.214 36.8522 127.653 36.8522C127.345 36.8522 127.059 36.8294 126.773 36.7951C126.487 36.7607 126.258 36.7264 126.075 36.6807V39.8488C126.303 39.8946 126.589 39.9517 126.921 39.9975C127.253 40.0432 127.642 40.0661 128.1 40.0661C129.038 40.0661 129.896 39.8946 130.674 39.5514C131.452 39.2198 132.138 38.7051 132.745 38.0303C133.351 37.3555 133.832 36.5091 134.209 35.5026L140.399 19.0101H136.12L133.408 27.2449C133.271 27.6452 133.157 28.0455 133.065 28.4573C132.973 28.8576 132.905 29.3036 132.848 29.7726H132.768C132.745 29.4523 132.71 29.1549 132.665 28.869C132.619 28.5831 132.562 28.3086 132.504 28.0341C132.447 27.7596 132.379 27.4965 132.287 27.2335L129.53 18.9986H125.159H125.171ZM154.539 33.6384H158.887L163.097 19.0101H159.184L157.434 25.4836C157.32 25.9411 157.194 26.4901 157.079 27.1305C156.965 27.771 156.862 28.3886 156.77 28.9719C156.679 29.5667 156.622 30.0013 156.587 30.2987H156.484C156.484 29.967 156.439 29.5095 156.359 28.9262C156.29 28.3429 156.198 27.7825 156.095 27.2335C155.992 26.6845 155.912 26.2842 155.855 26.0326L154.139 19.0215H149.746L147.938 26.0326C147.904 26.1698 147.858 26.41 147.789 26.776C147.732 27.1305 147.652 27.5423 147.583 27.9883C147.515 28.4344 147.446 28.869 147.389 29.2922C147.332 29.7154 147.297 30.0471 147.275 30.2987H147.172C147.126 29.9556 147.069 29.4981 146.977 28.9148C146.886 28.3315 146.805 27.7253 146.691 27.1077C146.577 26.4901 146.474 25.9525 146.359 25.495L144.666 19.0215H140.685L144.849 33.6498H149.139L150.318 28.5831C150.386 28.2628 150.478 27.8053 150.627 27.1992C150.775 26.593 150.924 25.9411 151.084 25.2548C151.244 24.5686 151.393 23.9281 151.519 23.3448C151.645 22.7615 151.748 22.3383 151.805 22.0638H151.92C151.988 22.3383 152.08 22.7615 152.217 23.3448C152.354 23.9281 152.503 24.5572 152.663 25.2434C152.823 25.9296 152.972 26.5701 153.109 27.1649C153.247 27.7596 153.35 28.2057 153.407 28.5145L154.528 33.6269L154.539 33.6384ZM171.054 18.6898C170.025 18.6898 169.029 18.8042 168.068 19.0444C167.107 19.2846 166.238 19.6048 165.46 20.0166L166.787 22.7158C167.462 22.4184 168.137 22.1553 168.823 21.9609C169.51 21.7665 170.196 21.6635 170.906 21.6635C171.615 21.6635 172.176 21.8465 172.576 22.2011C172.988 22.5671 173.182 23.1275 173.182 23.8938V24.5343L170.642 24.6143C168.457 24.6944 166.821 25.1061 165.734 25.8381C164.647 26.5701 164.098 27.7138 164.098 29.2693C164.098 30.3215 164.293 31.1908 164.682 31.877C165.071 32.5633 165.608 33.0665 166.295 33.3982C166.981 33.7299 167.759 33.89 168.617 33.89C169.43 33.89 170.116 33.8099 170.688 33.6498C171.26 33.4897 171.764 33.2495 172.198 32.9178C172.633 32.5861 173.056 32.163 173.48 31.6368H173.583L174.349 33.6269H177.141V23.8824C177.141 22.1325 176.626 20.84 175.573 19.9822C174.521 19.1244 173.022 18.7013 171.054 18.7013V18.6898ZM173.159 26.8789V28.0798C173.159 29.0177 172.862 29.7382 172.278 30.2415C171.695 30.7447 170.974 30.9963 170.116 30.9963C169.544 30.9963 169.075 30.8705 168.72 30.6075C168.366 30.3444 168.183 29.9098 168.183 29.3036C168.183 28.606 168.434 28.0341 168.938 27.6109C169.441 27.1763 170.334 26.9475 171.626 26.9132L173.171 26.8561L173.159 26.8789ZM186.783 30.7104C186.268 30.7104 185.845 30.5732 185.525 30.2987C185.204 30.0242 185.044 29.6124 185.044 29.052V21.9952H189.14V18.9986H185.044V15.8877H182.493L181.337 18.9758L179.141 20.3139V22.0066H181.051V29.0634C181.051 30.3215 181.246 31.3052 181.646 32.0028C182.047 32.7005 182.584 33.1923 183.282 33.4782C183.969 33.7642 184.758 33.9014 185.628 33.9014C186.371 33.9014 187.069 33.8328 187.698 33.707C188.328 33.5812 188.865 33.4211 189.289 33.2266V30.2529C188.877 30.3902 188.465 30.4931 188.053 30.5846C187.63 30.6647 187.206 30.7104 186.772 30.7104H186.783ZM198.211 18.7356C196.827 18.7356 195.626 19.0215 194.585 19.5934C193.544 20.1652 192.743 21.0116 192.159 22.1553C191.576 23.2876 191.29 24.7402 191.29 26.4214C191.29 28.1027 191.61 29.4981 192.251 30.6075C192.891 31.7169 193.772 32.5404 194.905 33.0779C196.026 33.6155 197.33 33.89 198.795 33.89C199.916 33.89 200.877 33.7985 201.667 33.6384C202.456 33.4668 203.211 33.2037 203.932 32.8492V29.7611C203.12 30.15 202.319 30.4359 201.541 30.6304C200.763 30.8248 199.916 30.9163 198.978 30.9163C197.857 30.9163 196.976 30.596 196.347 29.9556C195.706 29.3151 195.374 28.423 195.328 27.3021H204.767V25.3692C204.767 23.9395 204.504 22.7386 203.966 21.755C203.428 20.7714 202.673 20.0166 201.701 19.5019C200.728 18.9872 199.561 18.7241 198.211 18.7241V18.7356ZM198.234 21.5606C198.864 21.5606 199.39 21.6978 199.79 21.9723C200.191 22.2468 200.5 22.6128 200.706 23.0703C200.911 23.5278 201.026 24.0539 201.026 24.6487H195.42C195.5 23.585 195.786 22.8073 196.301 22.304C196.816 21.8122 197.456 21.5606 198.234 21.5606ZM211.761 13.2686H207.768V33.6269H211.761V13.2686ZM234.303 31.6403H224.525V31.5488L228.688 27.4005C229.657 26.45 230.502 25.5511 231.227 24.7047C231.952 23.8503 232.514 22.9902 232.916 22.1267C233.318 21.2541 233.518 20.3128 233.518 19.3006C233.518 18.2541 233.282 17.3505 232.811 16.5922C232.349 15.8328 231.69 15.2483 230.835 14.8389C229.98 14.4294 228.963 14.2236 227.786 14.2236C227.009 14.2236 226.276 14.3196 225.586 14.5118C224.905 14.7039 224.264 14.9658 223.663 15.2964C223.069 15.6281 222.52 16.0078 222.013 16.4344L223.178 17.8995C223.919 17.3242 224.644 16.8793 225.35 16.5648C226.057 16.2503 226.868 16.0936 227.785 16.0936C228.832 16.0936 229.674 16.3818 230.31 16.9571C230.956 17.5244 231.279 18.3479 231.279 19.4298C231.279 20.3025 231.11 21.1042 230.769 21.8374C230.428 22.5614 229.931 23.2991 229.277 24.0482C228.631 24.7985 227.833 25.6528 226.881 26.6124L221.764 31.8073V33.6258H234.303V31.6403ZM236.749 33.5892C237.046 33.8591 237.408 33.9952 237.836 33.9952C238.281 33.9952 238.656 33.8602 238.961 33.5892C239.267 33.3101 239.419 32.8698 239.419 32.2682C239.419 31.6574 239.266 31.2262 238.961 30.9723C238.656 30.7104 238.281 30.58 237.836 30.58C237.408 30.58 237.046 30.7104 236.749 30.9723C236.452 31.2251 236.304 31.6574 236.304 32.2682C236.304 32.8698 236.452 33.3101 236.749 33.5892ZM252.356 18.7516C251.903 17.2773 251.21 16.1519 250.275 15.3753C249.342 14.5907 248.154 14.1973 246.715 14.1973C245.197 14.1973 243.975 14.5941 243.049 15.3879C242.124 16.1725 241.452 17.3025 241.033 18.7768C240.624 20.2419 240.418 21.9952 240.418 24.0368C240.418 26.1126 240.644 27.8877 241.099 29.362C241.562 30.8271 242.255 31.9479 243.18 32.7245C244.113 33.5011 245.292 33.8888 246.714 33.8888C247.838 33.8888 248.803 33.6704 249.606 33.2346C250.409 32.7897 251.064 32.1447 251.569 31.2983C252.076 30.4519 252.447 29.418 252.682 28.1976C252.918 26.9773 253.036 25.5899 253.036 24.0368C253.037 21.9792 252.811 20.2167 252.356 18.7516ZM242.998 19.6414C243.268 18.4554 243.704 17.5655 244.307 16.9719C244.91 16.3703 245.712 16.0695 246.716 16.0695C247.719 16.0695 248.523 16.3703 249.124 16.9719C249.726 17.5655 250.162 18.4554 250.433 19.6414C250.703 20.8195 250.839 22.2846 250.839 24.0379C250.839 25.8267 250.7 27.3135 250.421 28.4996C250.149 29.6856 249.709 30.5709 249.098 31.1553C248.496 31.7398 247.702 32.0326 246.716 32.0326C245.73 32.0326 244.931 31.7398 244.32 31.1553C243.719 30.5617 243.281 29.6719 243.011 28.4859C242.741 27.2998 242.605 25.8164 242.605 24.0368C242.605 22.2846 242.736 20.8183 242.998 19.6414Z" fill="#1E1E1E"/>
</g>
<defs>
<linearGradient id="paint0_linear_2275_29569" x1="16.496" y1="18.4667" x2="20.2581" y2="21.4394" gradientUnits="userSpaceOnUse">
<stop stop-color="#C3BDC9"/>
<stop offset="1" stop-color="#C3BDC9" stop-opacity="0"/>
</linearGradient>
<linearGradient id="paint1_linear_2275_29569" x1="27.7897" y1="25.232" x2="16.3905" y2="19.3287" gradientUnits="userSpaceOnUse">
<stop stop-color="#C3BDC9"/>
<stop offset="1" stop-color="#C3BDC9" stop-opacity="0"/>
</linearGradient>
<linearGradient id="paint2_linear_2275_29569" x1="33.8895" y1="17.2918" x2="27.0696" y2="22.5072" gradientUnits="userSpaceOnUse">
<stop stop-color="#C3BDC9"/>
<stop offset="1" stop-color="#C3BDC9" stop-opacity="0"/>
</linearGradient>
<clipPath id="clip0_2275_29569">
<rect width="253.037" height="48" fill="white"/>
</clipPath>
</defs>
</svg>