<?xml version="1.0" encoding="UTF-8"?>
<svg id="Warstwa_3" data-name="Warstwa 3" xmlns="http://www.w3.org/2000/svg" viewBox="0 0 25.49 23.53">
  <defs>
    <style>
      .cls-1, .cls-2 {
        fill: none;
        stroke: #003087;
        stroke-linejoin: round;
        stroke-width: 1.5px;
      }

      .cls-2 {
        stroke-linecap: round;
      }
    </style>
  </defs>
  <path class="cls-2" d="M2.43,20.22h20"/>
  <path class="cls-1" d="M3.38,20.22l.05-12.03c0-.61.29-1.19.77-1.57L11.2,1.17c.72-.56,1.73-.56,2.46,0l7,5.44c.49.38.77.96.77,1.58v12.03"/>
  <path class="cls-1" d="M13.43,15.22h-2c-.83,0-1.5.67-1.5,1.5v3.5h5v-3.5c0-.83-.67-1.5-1.5-1.5Z"/>
  <path class="cls-1" d="M9.93,11.97h-2c-.55,0-1-.45-1-1v-1.5c0-.55.45-1,1-1h2c.55,0,1,.45,1,1v1.5c0,.55-.45,1-1,1Z"/>
  <path class="cls-1" d="M16.93,11.97h-2c-.55,0-1-.45-1-1v-1.5c0-.55.45-1,1-1h2c.55,0,1,.45,1,1v1.5c0,.55-.45,1-1,1Z"/>
  <path class="cls-2" d="M19.43,5.22l-.03-3h-4.4"/>
</svg>