<?xml version="1.0" encoding="UTF-8"?>
<svg id="Warstwa_1" data-name="Warstwa 1" xmlns="http://www.w3.org/2000/svg" viewBox="0 0 842 595">
  <defs>
    <style>
      .cls-1 {
        fill: #145ca8;
        fill-rule: evenodd;
      }
    </style>
  </defs>
  <path class="cls-1" d="M554.57,239.68c-82.08-19.55-167.33-9.91-209.77,22.34-1.14.87-2.18-.42-.64-2.25,22.42-26.78,103.36-63.98,177.3-38.9-162.51-75.07-347.74-77.03-460.53,55.3-3.49,4.1-8.25,2.44-3.38-5.47,106.56-172.87,361.51-151.17,499.11-42.12,12.7,10.06,7.62,13.4-2.09,11.09Z"/>
  <path class="cls-1" d="M190.17,238.07h123.61c4.18,0,7.07,3.54,6.27,7.72l-2.57,14.15c-.8,4.34-4.98,7.88-9.16,7.88h-102.88l-4.34,23.79h53.53c4.18,0,7.07,3.54,6.27,7.72l-2.41,13.18c-.8,4.18-4.98,7.72-9.16,7.72h-53.37l-4.66,24.91h100.47v.16h2.41c4.18,0,7.07,3.37,6.27,7.71l-2.57,14.15c-.8,4.18-4.98,7.71-9.16,7.71h-132.77c-4.18,0-7.07-3.54-6.27-7.71l.8-4.34.64-4.02,19.13-104.64.8-4.34.8-4.02c.8-4.18,4.82-7.72,9.16-7.72h9.16Z"/>
  <path class="cls-1" d="M336.76,278.58h17.84c4.18,0,6.91,3.38,6.11,7.39l-.8,4.02h.16l-1.12,5.79c44.85-36.58,94.69-19.77,85.84,28.77l-6.59,35.53v1.12l-1.29,6.27c-.64,4.02-4.66,7.39-8.84,7.39h-22.5c-4.18,0-6.91-3.38-6.11-7.39l1.12-6.27v-.48l5.79-31.18c7.88-42.76-43.4-36.81-52.89-3.7l-7.23,39.22h0l-.48,2.41c-.8,4.18-4.66,7.39-8.84,7.39h-22.5c-4.02,0-6.75-3.21-5.95-7.39l1.12-6.27h0l12.54-68.8h0l1.13-6.43c.8-4.02,4.82-7.39,8.84-7.39h4.66Z"/>
  <path class="cls-1" d="M545.41,317.32h-48.22c3.86-12.54,13.99-19.13,27.65-19.13,14.63,0,22.67,6.91,20.58,19.13h0ZM546.21,342.88c-3.54,0-7.23,2.09-9.97,4.66-20.25,13.18-45.17,7.39-40.99-13.02h81.18c3.37,0,6.43-2.09,7.72-5.14.16-.16.16-.32.16-.48h0c.32-.64.48-1.29.48-1.93l.64-6.27c0-.8,0-1.45-.16-2.25-.16-25.88-21.26-42.43-57.43-42.43-39.7,0-69.24,20.41-74.86,51.6-5.63,30.38,16.24,49.03,56.42,49.03,27.97,0,45.97-6.27,65.42-26.2,3.54-3.54,1.29-7.55-3.05-7.55h-25.56Z"/>
  <path class="cls-1" d="M668.38,338.7c-1.77,9.81-13.66,18-28.13,18-9.65,0-14.95-4.5-13.82-11.09,1.12-5.63,6.11-8.36,16.24-10.45,9.81-1.93,19.13-.64,27.17-3.86l-1.45,7.39h0ZM707.44,367.31c-1.29-5.3-1.93-7.72-.8-13.66l6.43-35.36c2.41-13.02,3.7-22.5-3.21-30.06-7.39-8.2-22.83-12.22-45.81-12.22-20.74,0-49.51,2.09-62.69,23.79-2.57,4.18.16,7.71,4.34,7.71h23.47c12.06,0,13.82-10.61,29.9-10.61,11.25,0,16.56,2.89,15.59,8.2l-.48,2.41c-1.29,7.23-17.52,7.56-48.87,12.54-23.79,4.02-37.29,13.34-40.19,29.09-3.05,16.56,10.45,27.48,36.17,27.48,15.91,0,30.06-5.46,43.72-13.98.6,3.21,2.15,12.38,9.16,12.22h26.04c4.18,0,8.2-3.54,7.23-7.55Z"/>
</svg>