<svg width="240" height="88" viewBox="0 0 240 88" fill="none" xmlns="http://www.w3.org/2000/svg">
<path fill-rule="evenodd" clip-rule="evenodd" d="M181.778 36.6883C184.572 37.4992 185.434 35.1322 183.932 33.8501C132.339 -8.09792 41.3137 -16.4152 1.29627 47.8766C0.280092 49.4984 2.08049 50.2545 3.08562 49.1258C67.4581 -23.8339 166.104 28.1299 168.07 29.2148C168.258 29.3024 168.192 29.5106 168.026 29.4449C146.322 22.5631 117.593 30.7051 105.355 43.9207C104.968 44.3371 105.388 44.8521 105.885 44.4576C121.117 33.1707 152.044 29.6093 181.767 36.6773" fill="#003087"/>
<path fill-rule="evenodd" clip-rule="evenodd" d="M94.3004 37.71C95.8468 37.71 96.885 38.9702 96.6089 40.5153L95.659 45.5999C95.3829 47.145 93.8807 48.4162 92.3454 48.4162H55.012L53.4435 56.8978H72.8282C74.3745 56.8978 75.4128 58.158 75.1367 59.6922L74.2641 64.4261C73.9769 65.9602 72.4747 67.2204 70.9394 67.2204H51.5327L49.9642 75.6911L87.2866 75.713C88.844 75.713 89.8712 76.9623 89.584 78.4964L88.6452 83.592C88.369 85.1371 86.8669 86.3973 85.3205 86.3973H37.1295C35.5831 86.3973 34.5449 85.1371 34.8321 83.592L42.7958 40.5153C43.0719 38.9811 44.5741 37.7209 46.1204 37.7209H94.3225L94.3004 37.71Z" fill="#003087"/>
<path fill-rule="evenodd" clip-rule="evenodd" d="M109.134 51.6936C110.625 51.6936 111.62 52.888 111.343 54.3564L110.714 57.8521C127.072 44.6365 145.164 50.4005 141.862 68.2514L139.045 83.6806C138.769 85.149 137.322 86.3763 135.82 86.3763H127.602C126.111 86.3763 125.117 85.1599 125.404 83.6806L127.934 69.9938C130.761 54.6084 110.935 56.7124 108.427 70.202C107.212 76.7659 105.92 83.6915 105.92 83.6915C105.655 85.1709 104.23 86.3763 102.739 86.3763H94.5765C93.0964 86.3763 92.1024 85.1709 92.3564 83.6915L97.7797 54.3455C98.0558 52.8661 99.4917 51.6826 100.972 51.6826H109.123L109.134 51.6936Z" fill="#003087"/>
<path fill-rule="evenodd" clip-rule="evenodd" d="M178.71 74.8376H188.021C189.557 74.8376 190.274 76.1964 189.104 77.5552C184.023 83.4726 175.54 87.0121 165.323 87.0121C150.754 87.0121 142.824 80.2728 144.834 69.3694C146.921 58.1044 157.525 51.2774 171.917 51.2774C185.039 51.2774 192.87 56.7017 192.903 66.082C192.903 68.5914 192.671 69.5557 192.495 69.9831C192.031 71.068 190.904 71.8569 189.711 71.8569H160.176C158.707 79.188 167.731 81.2481 175.087 76.5142C176.413 75.6594 177.197 74.8485 178.71 74.8485M178.434 65.6546H160.905C162.308 61.1289 165.986 58.7619 170.945 58.7619C176.247 58.7619 179.174 61.2384 178.434 65.6546Z" fill="#003087"/>
<path fill-rule="evenodd" clip-rule="evenodd" d="M237.261 83.5597C237.714 85.313 236.366 86.3102 234.643 86.3102H225.144C221.753 86.3102 221.819 81.9598 221.819 81.8941C216.86 84.9733 211.713 86.9458 205.947 86.9458C196.603 86.9458 191.721 83.0337 192.825 77.0505C193.875 71.3742 198.746 67.9881 207.449 66.5745C218.815 64.7335 224.68 64.613 225.155 62.0049L225.31 61.1721C225.685 59.2215 223.774 58.2243 219.677 58.2243C212.895 58.2243 213.215 62.0159 208.808 62.0159H200.314C198.779 62.0159 197.785 60.7447 198.69 59.2544C203.506 51.4083 213.977 50.696 221.477 50.696C229.827 50.696 235.416 52.1206 238.122 55.0903C240.641 57.8079 240.166 61.2378 239.293 65.917L236.952 78.6395C236.554 80.7763 236.797 81.6749 237.261 83.5597ZM223.09 73.259C222.427 76.8095 218.13 79.7791 212.884 79.7791C209.371 79.7791 207.416 78.1135 207.847 75.7575C208.234 73.7521 210.089 72.744 213.734 72.0207C217.28 71.3084 220.704 71.7906 223.587 70.6181L223.101 73.259H223.09Z" fill="#003087"/>
</svg>
