<?xml version="1.0" encoding="UTF-8"?>
<svg id="Warstwa_1" data-name="Warstwa 1" xmlns="http://www.w3.org/2000/svg" viewBox="0 0 21.49 20.5">
  <defs>
    <style>
      .cls-1 {
        fill: none;
        stroke: #161616;
        stroke-linecap: round;
        stroke-linejoin: round;
        stroke-width: 1.5px;
      }
    </style>
  </defs>
  <path class="cls-1" d="M20.42,8.69l-.98,4.18c-.84,3.61-2.5,5.07-5.62,4.77-.5-.04-1.04-.13-1.62-.27l-1.68-.4c-4.17-.99-5.46-3.05-4.48-7.23l.98-4.19c.2-.85.44-1.59.74-2.2,1.17-2.42,3.16-3.07,6.5-2.28l1.67.39c4.19.98,5.47,3.05,4.49,7.23Z"/>
  <path class="cls-1" d="M13.82,17.64c-.62.42-1.4.77-2.35,1.08l-1.58.52c-3.97,1.28-6.06.21-7.35-3.76l-1.28-3.95C-.02,7.56,1.04,5.46,5.01,4.18l1.58-.52c.41-.13.8-.24,1.17-.31-.3.61-.54,1.35-.74,2.2l-.98,4.19c-.98,4.18.31,6.24,4.48,7.23l1.68.4c.58.14,1.12.23,1.62.27Z"/>
  <path class="cls-1" d="M11.4,6.78l4.85,1.23"/>
  <path class="cls-1" d="M10.42,10.65l2.9.74"/>
</svg>