<svg width="24" height="24" viewBox="0 0 24 24" fill="none" xmlns="http://www.w3.org/2000/svg">
<g clip-path="url(#clip0_215_931)">
<path d="M18.44 11.23C17.78 11.06 17 10.96 16.07 10.96C14.78 10.96 14.3 11.27 13.64 11.77C13.61 11.79 13.57 11.83 13.54 11.86L12.44 13.03C11.51 14.01 9.84 14.02 8.91 13.02L7.81 11.86C7.81 11.86 7.74 11.79 7.71 11.77C7.05 11.27 6.57 10.96 5.28 10.96C4.35 10.96 3.57 11.05 2.91 11.23C0.119995 11.98 0.119995 14.17 0.119995 16.1V17.18C0.119995 20.1 0.119996 23.4 6.34 23.4H14.99C19.12 23.4 21.21 21.31 21.21 17.18V16.1C21.21 14.17 21.21 11.97 18.44 11.23ZM13.38 19.22H7.96C7.52 19.22 7.16 18.86 7.16 18.41C7.16 17.96 7.52 17.6 7.96 17.6H13.38C13.82 17.6 14.18 17.96 14.18 18.41C14.18 18.86 13.82 19.22 13.38 19.22Z" fill="#003087"/>
<path d="M11.45 0.929902C11.45 0.499902 11.1 0.149902 10.67 0.149902C10.24 0.149902 9.89001 0.499902 9.89001 0.929902V2.4799H11.46V0.929902H11.45Z" fill="#003087"/>
<path d="M19.05 7.61997V9.59997C19.05 9.59997 18.95 9.56997 18.9 9.54997H18.89C18.06 9.32997 17.15 9.21997 16.08 9.21997C14.29 9.21997 13.44 9.73997 12.67 10.32C12.51 10.44 12.39 10.55 12.27 10.67L11.17 11.84C11.05 11.96 10.87 12.03 10.67 12.03C10.58 12.03 10.34 12.02 10.17 11.83L9.03001 10.63C8.91001 10.5 8.77001 10.4 8.74001 10.37C7.90001 9.72997 7.05001 9.20997 5.26001 9.20997C4.19001 9.20997 3.27001 9.30997 2.44001 9.53997C2.39001 9.54997 2.34001 9.55997 2.29001 9.58997V7.60997C2.29001 5.19997 2.29001 2.46997 7.43001 2.46997H9.89001V6.47997L9.13001 5.71997C8.82001 5.40997 8.33001 5.40997 8.01001 5.71997C7.71001 6.01997 7.71001 6.51997 8.01001 6.81997L10.1 8.90997C10.1 8.90997 10.12 8.91997 10.12 8.92997C10.19 8.98997 10.27 9.04997 10.35 9.07997C10.45 9.10997 10.55 9.13997 10.65 9.13997C10.75 9.13997 10.85 9.11997 10.95 9.07997C11.04 9.04997 11.12 8.98997 11.21 8.90997L13.3 6.81997C13.6 6.51997 13.6 6.01997 13.3 5.71997C12.99 5.40997 12.5 5.40997 12.18 5.71997L11.42 6.47997V2.47997H13.88C19.02 2.47997 19.02 5.20997 19.02 7.61997H19.05Z" fill="#003087"/>
</g>
<defs>
<clipPath id="clip0_215_931">
<rect width="23.89" height="23.4" fill="white"/>
</clipPath>
</defs>
</svg>
