<svg width="24" height="24" viewBox="0 0 24 24" fill="none" xmlns="http://www.w3.org/2000/svg">
<g clip-path="url(#clip0_16_1806)">
<path d="M17.92 0H5.97C2.39 0 0 1.79 0 5.97V15.48C0 18.22 2.21 20.43 4.95 20.43H12.43C13.12 20.43 13.72 19.84 13.65 19.15C13.48 17.32 14.08 15.35 15.7 13.76C16.37 13.1 17.19 12.6 18.09 12.31C19.58 11.83 21.03 11.89 22.31 12.33C23.09 12.59 23.9 12.03 23.9 11.21V5.97C23.9 1.79 21.51 0 17.93 0L17.92 0ZM18.48 6.68L14.74 9.67C13.95 10.3 12.95 10.61 11.94 10.61C10.93 10.61 9.92 10.3 9.14 9.67L5.4 6.68C5.02 6.37 4.96 5.81 5.26 5.41C5.57 5.03 6.13 4.96 6.51 5.27L10.25 8.26C11.16 8.99 12.7 8.99 13.61 8.26L17.35 5.27C17.73 4.96 18.31 5.02 18.6 5.41C18.91 5.8 18.85 6.37 18.47 6.68H18.48Z" fill="#003087"/>
<path d="M18.8101 15.4299V22.2699" stroke="#003087" stroke-width="2" stroke-linecap="round" stroke-linejoin="round"/>
<path d="M16.1599 17.9599L18.8099 15.4299" stroke="#003087" stroke-width="2" stroke-linecap="round" stroke-linejoin="round"/>
<path d="M21.4601 17.9599L18.8101 15.4299" stroke="#003087" stroke-width="2" stroke-linecap="round" stroke-linejoin="round"/>
</g>
<defs>
<clipPath id="clip0_16_1806">
<rect width="23.89" height="23.4" fill="white"/>
</clipPath>
</defs>
</svg>
